<?xml version="1.0" encoding="UTF-8" standalone="no"?>
<svg
   xmlns:dc="http://purl.org/dc/elements/1.1/"
   xmlns:cc="http://creativecommons.org/ns#"
   xmlns:rdf="http://www.w3.org/1999/02/22-rdf-syntax-ns#"
   xmlns:svg="http://www.w3.org/2000/svg"
   xmlns="http://www.w3.org/2000/svg"
   viewBox="0 0 156.53946 222.27972"
   height="222.27972"
   width="156.53946"
   xml:space="preserve"
   id="svg2"
   version="1.1"><metadata
     id="metadata8"><rdf:RDF><cc:Work
         rdf:about=""><dc:format>image/svg+xml</dc:format><dc:type
           rdf:resource="http://purl.org/dc/dcmitype/StillImage" /><dc:title></dc:title></cc:Work></rdf:RDF></metadata><defs
     id="defs6" /><g
     transform="matrix(1.3333333,0,0,1.3333333,0,1.5569931e-6)"
     id="g10"><g
       id="g12"><path
         id="path14"
         style="fill:#8dcbff;fill-opacity:1;fill-rule:nonzero;stroke:none"
         d="M 5.668,44.422 H 111.734 V 66.117 H 5.668 Z" /><g
         id="text18"
         style="font-variant:normal;font-weight:normal;font-size:13.99999905px;font-family:'LM Roman 10';-inkscape-font-specification:LMRoman10-Regular;writing-mode:lr-tb;fill:#000000;fill-opacity:1;fill-rule:nonzero;stroke:none"
         transform="translate(28.142923,60.050705)"
         aria-label="Conv 1×1"><path
           id="path961"
           style=""
           d="m 9.3099994,-3.2619998 c 0,-0.14 0,-0.238 -0.182,-0.238 -0.154,0 -0.154,0.084 -0.168,0.224 -0.112,2.0019999 -1.6099999,3.14999981 -3.1359998,3.14999981 -0.8539999,0 -3.5979998,-0.47599997 -3.5979998,-4.64799971 0,-4.1859997 2.7299999,-4.6619997 3.5839998,-4.6619997 1.5259999,0 2.7719998,1.274 3.0519998,3.3179998 0.028,0.196 0.028,0.238 0.224,0.238 0.224,0 0.224,-0.042 0.224,-0.336 v -3.3179998 c 0,-0.2379999 0,-0.3359999 -0.154,-0.3359999 -0.056,0 -0.112,0 -0.224,0.168 l -0.7,1.0359999 c -0.5179999,-0.504 -1.2319999,-1.2039999 -2.5759998,-1.2039999 -2.6179998,0 -4.87199965,2.2259998 -4.87199965,5.0819996 0,2.8979998 2.26799985,5.09599968 4.87199965,5.09599968 2.2819999,0 3.6539998,-1.94599988 3.6539998,-3.56999978 z" /><path
           id="path963"
           style=""
           d="m 16.701998,-2.9959998 c 0,-1.7919999 -1.4,-3.2759998 -3.093999,-3.2759998 -1.75,0 -3.108,1.5259999 -3.108,3.2759998 0,1.8059999 1.456,3.14999979 3.094,3.14999979 1.693999,0 3.107999,-1.37199989 3.107999,-3.14999979 z m -1.162,-0.112 c 0,0.504 0,1.2599999 -0.308,1.8759999 -0.307999,0.62999994 -0.923999,1.03599991 -1.623999,1.03599991 -0.602,0 -1.218,-0.29399998 -1.596,-0.93799991 -0.35,-0.616 -0.35,-1.4699999 -0.35,-1.9739999 0,-0.546 0,-1.3019999 0.336,-1.9179999 0.378,-0.6439999 1.036,-0.9379999 1.596,-0.9379999 0.616,0 1.218,0.308 1.582,0.9099999 0.363999,0.602 0.363999,1.4139999 0.363999,1.9459999 z" /><path
           id="path965"
           style=""
           d="m 24.597997,0 v -0.43399997 c -0.728,0 -1.078,0 -1.092,-0.41999997 V -3.5279998 c 0,-1.2039999 0,-1.6379998 -0.434,-2.1419998 -0.195999,-0.238 -0.657999,-0.518 -1.469999,-0.518 -1.022,0 -1.68,0.602 -2.072,1.4699999 v -1.4699999 l -1.974,0.154 v 0.434 c 0.98,0 1.092,0.098 1.092,0.7839999 v 3.7519998 c 0,0.62999993 -0.154,0.62999993 -1.092,0.62999993 V 0 l 1.582,-0.042 1.568,0.042 v -0.43399997 c -0.938,0 -1.092,0 -1.092,-0.62999993 v -2.5759999 c 0,-1.4559999 0.994,-2.2399998 1.89,-2.2399998 0.882,0 1.036,0.7559999 1.036,1.5539999 v 3.2619998 c 0,0.62999993 -0.154,0.62999993 -1.092,0.62999993 V 0 l 1.581999,-0.042 z" /><path
           id="path967"
           style=""
           d="m 31.639997,-5.5999996 v -0.434 c -0.321999,0.028 -0.727999,0.042 -1.049999,0.042 l -1.218,-0.042 v 0.434 c 0.518,0.014 0.672,0.336 0.672,0.6019999 0,0.126 -0.028,0.182 -0.084,0.336 l -1.428,3.5699998 -1.568,-3.9059998 c -0.084,-0.1819999 -0.084,-0.2379999 -0.084,-0.2379999 0,-0.364 0.546,-0.364 0.798,-0.364 v -0.434 l -1.526,0.042 c -0.378,0 -0.938,-0.014 -1.358,-0.042 v 0.434 c 0.882,0 0.938,0.084 1.12,0.5179999 l 2.016,4.96999971 c 0.084,0.19599998 0.112,0.26599998 0.294,0.26599998 0.182,0 0.238,-0.12599999 0.294,-0.26599998 l 1.834,-4.54999971 c 0.126,-0.322 0.364,-0.9239999 1.287999,-0.9379999 z" /><path
           id="path969"
           style=""
           d="m 42.447997,0 v -0.43399997 h -0.448 c -1.26,0 -1.302,-0.15399999 -1.302,-0.67199993 v -7.8539995 c 0,-0.336 0,-0.364 -0.322,-0.364 -0.868,0.896 -2.1,0.896 -2.548,0.896 v 0.4339999 c 0.28,0 1.106,0 1.834,-0.3639999 v 7.2519995 c 0,0.50399994 -0.042,0.67199993 -1.302,0.67199993 h -0.448 V 0 c 0.49,-0.042 1.708,-0.042 2.268,-0.042 0.56,0 1.778,0 2.268,0.042 z" /><path
           id="path971"
           style=""
           d="m 52.317996,-0.20999999 c 0.196,-0.19599998 0.014,-0.37799997 -0.126,-0.51799996 l -2.771999,-2.77199985 2.757999,-2.7719998 c 0.14,-0.14 0.336,-0.322 0.14,-0.5179999 -0.21,-0.196 -0.392,-0.014 -0.532,0.126 l -2.757999,2.7579998 -2.772,-2.7719998 c -0.14,-0.14 -0.322,-0.322 -0.532,-0.126 -0.196,0.196 0,0.3919999 0.14,0.5319999 l 2.772,2.7719998 -2.772,2.77199985 c -0.14,0.13999999 -0.336,0.32199998 -0.14,0.51799996 0.21,0.19599999 0.392,0.014 0.532,-0.12599999 l 2.772,-2.77199982 2.771999,2.77199982 c 0.14,0.13999999 0.322,0.32199998 0.518,0.12599999 z" /><path
           id="path973"
           style=""
           d="m 60.339995,0 v -0.43399997 h -0.448 c -1.26,0 -1.302,-0.15399999 -1.302,-0.67199993 v -7.8539995 c 0,-0.336 0,-0.364 -0.322,-0.364 -0.868,0.896 -2.1,0.896 -2.548,0.896 v 0.4339999 c 0.28,0 1.106,0 1.834,-0.3639999 v 7.2519995 c 0,0.50399994 -0.042,0.67199993 -1.302,0.67199993 h -0.448 V 0 c 0.49,-0.042 1.708,-0.042 2.268,-0.042 0.56,0 1.778,0 2.268,0.042 z" /></g><path
         id="path20"
         style="fill:#8dcbff;fill-opacity:1;fill-rule:nonzero;stroke:none"
         d="M 5.668,74.422 H 111.734 V 96.117 H 5.668 Z" /><g
         id="text24"
         style="font-variant:normal;font-weight:normal;font-size:13.99999905px;font-family:'LM Roman 10';-inkscape-font-specification:LMRoman10-Regular;writing-mode:lr-tb;fill:#000000;fill-opacity:1;fill-rule:nonzero;stroke:none"
         transform="translate(15.869628,90.050707)"
         aria-label="DWConv 3×3"><path
           id="path942"
           style=""
           d="m 9.8979993,-4.7039997 c 0,-2.6599998 -1.8899998,-4.8579996 -4.2839997,-4.8579996 H 0.48999997 v 0.4339999 h 0.33599997 c 1.07799996,0 1.10599996,0.154 1.10599996,0.658 v 7.3779995 c 0,0.50399994 -0.028,0.65799993 -1.10599996,0.65799993 H 0.48999997 V 0 H 5.6139996 c 2.3519999,0 4.2839997,-2.0719999 4.2839997,-4.7039997 z m -1.3999999,0 c 0,1.5539999 -0.266,2.3939999 -0.7699999,3.0799998 -0.28,0.378 -1.078,1.18999993 -2.4919999,1.18999993 H 3.8219997 c -0.6579999,0 -0.6859999,-0.098 -0.6859999,-0.55999996 V -8.5679994 c 0,-0.462 0.028,-0.56 0.6859999,-0.56 h 1.3999999 c 0.868,0 1.8339999,0.308 2.5479999,1.3019999 0.6019999,0.826 0.7279999,2.0299999 0.7279999,3.1219998 z" /><path
           id="path944"
           style=""
           d="m 24.429998,-9.1279994 v -0.4339999 c -0.42,0.028 -0.854,0.042 -1.274,0.042 l -1.666,-0.042 v 0.4339999 c 0.938,0.014 1.218,0.476 1.218,0.742 0,0.084 -0.042,0.196 -0.07,0.28 l -2.1,6.4679995 -2.24,-6.8599995 c -0.014,-0.056 -0.042,-0.14 -0.042,-0.21 0,-0.42 0.812,-0.42 1.176,-0.42 v -0.4339999 c -0.504,0.042 -1.456,0.042 -1.988,0.042 l -1.707999,-0.042 v 0.4339999 c 0.798,0 1.092,0 1.259999,0.504 l 0.308,0.9799999 -1.945999,6.0059996 -2.254,-6.8879995 c -0.014,-0.042 -0.028,-0.14 -0.028,-0.182 0,-0.42 0.812,-0.42 1.176,-0.42 v -0.4339999 c -0.504,0.042 -1.456,0.042 -1.988,0.042 l -1.708,-0.042 v 0.4339999 c 1.05,0 1.106,0.07 1.274,0.588 l 2.8,8.5819994 c 0.042,0.12599999 0.084,0.26599998 0.266,0.26599998 0.196,0 0.224,-0.098 0.28,-0.27999998 l 2.309999,-7.1119995 2.324,7.1259995 c 0.042,0.12599999 0.084,0.26599998 0.266,0.26599998 0.196,0 0.224,-0.098 0.28,-0.27999998 l 2.674,-8.2179994 c 0.252,-0.798 0.854,-0.938 1.4,-0.938 z" /><path
           id="path946"
           style=""
           d="m 33.613998,-3.2619998 c 0,-0.14 0,-0.238 -0.182,-0.238 -0.154,0 -0.154,0.084 -0.168,0.224 -0.112,2.0019999 -1.61,3.14999981 -3.135999,3.14999981 -0.854,0 -3.598,-0.47599997 -3.598,-4.64799971 0,-4.1859997 2.73,-4.6619997 3.584,-4.6619997 1.525999,0 2.771999,1.274 3.051999,3.3179998 0.028,0.196 0.028,0.238 0.224,0.238 0.224,0 0.224,-0.042 0.224,-0.336 v -3.3179998 c 0,-0.2379999 0,-0.3359999 -0.154,-0.3359999 -0.056,0 -0.112,0 -0.224,0.168 l -0.7,1.0359999 c -0.518,-0.504 -1.232,-1.2039999 -2.575999,-1.2039999 -2.618,0 -4.872,2.2259998 -4.872,5.0819996 0,2.8979998 2.268,5.09599968 4.872,5.09599968 2.281999,0 3.653999,-1.94599988 3.653999,-3.56999978 z" /><path
           id="path948"
           style=""
           d="m 41.005998,-2.9959998 c 0,-1.7919999 -1.4,-3.2759998 -3.093999,-3.2759998 -1.75,0 -3.108,1.5259999 -3.108,3.2759998 0,1.8059999 1.456,3.14999979 3.094,3.14999979 1.693999,0 3.107999,-1.37199989 3.107999,-3.14999979 z m -1.162,-0.112 c 0,0.504 0,1.2599999 -0.308,1.8759999 -0.308,0.62999994 -0.924,1.03599991 -1.623999,1.03599991 -0.602,0 -1.218,-0.29399998 -1.596,-0.93799991 -0.35,-0.616 -0.35,-1.4699999 -0.35,-1.9739999 0,-0.546 0,-1.3019999 0.336,-1.9179999 0.378,-0.6439999 1.036,-0.9379999 1.596,-0.9379999 0.615999,0 1.217999,0.308 1.581999,0.9099999 0.364,0.602 0.364,1.4139999 0.364,1.9459999 z" /><path
           id="path950"
           style=""
           d="m 48.901998,0 v -0.43399997 c -0.728,0 -1.078,0 -1.092,-0.41999997 V -3.5279998 c 0,-1.2039999 0,-1.6379998 -0.434,-2.1419998 -0.196,-0.238 -0.658,-0.518 -1.47,-0.518 -1.021999,0 -1.679999,0.602 -2.071999,1.4699999 v -1.4699999 l -1.974,0.154 v 0.434 c 0.98,0 1.092,0.098 1.092,0.7839999 v 3.7519998 c 0,0.62999993 -0.154,0.62999993 -1.092,0.62999993 V 0 l 1.582,-0.042 1.568,0.042 v -0.43399997 c -0.938,0 -1.092,0 -1.092,-0.62999993 v -2.5759999 c 0,-1.4559999 0.994,-2.2399998 1.889999,-2.2399998 0.882,0 1.036,0.7559999 1.036,1.5539999 v 3.2619998 c 0,0.62999993 -0.154,0.62999993 -1.092,0.62999993 V 0 l 1.582,-0.042 z" /><path
           id="path952"
           style=""
           d="m 55.943996,-5.5999996 v -0.434 c -0.322,0.028 -0.728,0.042 -1.049999,0.042 l -1.218,-0.042 v 0.434 c 0.518,0.014 0.672,0.336 0.672,0.6019999 0,0.126 -0.028,0.182 -0.084,0.336 l -1.428,3.5699998 -1.568,-3.9059998 c -0.084,-0.1819999 -0.084,-0.2379999 -0.084,-0.2379999 0,-0.364 0.546,-0.364 0.798,-0.364 v -0.434 l -1.526,0.042 c -0.378,0 -0.938,-0.014 -1.358,-0.042 v 0.434 c 0.882,0 0.938,0.084 1.12,0.5179999 l 2.016,4.96999971 c 0.084,0.19599998 0.112,0.26599998 0.294,0.26599998 0.182,0 0.238,-0.12599999 0.294,-0.26599998 l 1.834,-4.54999971 c 0.126,-0.322 0.363999,-0.9239999 1.287999,-0.9379999 z" /><path
           id="path954"
           style=""
           d="m 67.283994,-2.3939998 c 0,-1.148 -0.882,-2.2399999 -2.338,-2.5339999 1.148,-0.3779999 1.96,-1.3579999 1.96,-2.4639998 0,-1.1479999 -1.232,-1.9319999 -2.576,-1.9319999 -1.414,0 -2.478,0.84 -2.478,1.9039999 0,0.462 0.308,0.728 0.714,0.728 0.434,0 0.714,-0.308 0.714,-0.714 0,-0.6999999 -0.658,-0.6999999 -0.868,-0.6999999 0.434,-0.686 1.358,-0.868 1.862,-0.868 0.574,0 1.344,0.308 1.344,1.5679999 0,0.168 -0.028,0.9799999 -0.392,1.5959999 -0.42,0.6719999 -0.896,0.7139999 -1.246,0.7279999 -0.112,0.014 -0.448,0.042 -0.546,0.042 -0.112,0.014 -0.21,0.028 -0.21,0.168 0,0.154 0.098,0.154 0.336,0.154 h 0.616 c 1.148,0 1.666,0.952 1.666,2.3239999 0,1.90399983 -0.966,2.30999981 -1.582,2.30999981 -0.602,0 -1.652,-0.23799999 -2.142,-1.06399991 0.49,0.07 0.924,-0.238 0.924,-0.77 0,-0.5039999 -0.378,-0.7839999 -0.784,-0.7839999 -0.336,0 -0.784,0.196 -0.784,0.8119999 0,1.27399994 1.302,2.19799988 2.828,2.19799988 1.708,0 2.982,-1.27399991 2.982,-2.70199978 z" /><path
           id="path956"
           style=""
           d="m 76.621993,-0.20999999 c 0.196,-0.19599998 0.014,-0.37799997 -0.126,-0.51799996 l -2.771999,-2.77199985 2.757999,-2.7719998 c 0.14,-0.14 0.336,-0.322 0.14,-0.5179999 -0.21,-0.196 -0.392,-0.014 -0.532,0.126 l -2.757999,2.7579998 -2.772,-2.7719998 c -0.14,-0.14 -0.322,-0.322 -0.532,-0.126 -0.196,0.196 0,0.3919999 0.14,0.5319999 l 2.772,2.7719998 -2.772,2.77199985 c -0.14,0.13999999 -0.336,0.32199998 -0.14,0.51799996 0.21,0.19599999 0.392,0.014 0.532,-0.12599999 l 2.772,-2.77199982 2.771999,2.77199982 c 0.14,0.13999999 0.322,0.32199998 0.518,0.12599999 z" /><path
           id="path958"
           style=""
           d="m 85.175992,-2.3939998 c 0,-1.148 -0.882,-2.2399999 -2.338,-2.5339999 1.148,-0.3779999 1.96,-1.3579999 1.96,-2.4639998 0,-1.1479999 -1.232,-1.9319999 -2.576,-1.9319999 -1.414,0 -2.478,0.84 -2.478,1.9039999 0,0.462 0.308,0.728 0.714,0.728 0.434,0 0.714,-0.308 0.714,-0.714 0,-0.6999999 -0.658,-0.6999999 -0.868,-0.6999999 0.434,-0.686 1.358,-0.868 1.862,-0.868 0.574,0 1.344,0.308 1.344,1.5679999 0,0.168 -0.028,0.9799999 -0.392,1.5959999 -0.42,0.6719999 -0.896,0.7139999 -1.246,0.7279999 -0.112,0.014 -0.448,0.042 -0.546,0.042 -0.112,0.014 -0.21,0.028 -0.21,0.168 0,0.154 0.098,0.154 0.336,0.154 h 0.616 c 1.148,0 1.666,0.952 1.666,2.3239999 0,1.90399983 -0.966,2.30999981 -1.582,2.30999981 -0.602,0 -1.652,-0.23799999 -2.142,-1.06399991 0.49,0.07 0.924,-0.238 0.924,-0.77 0,-0.5039999 -0.378,-0.7839999 -0.784,-0.7839999 -0.336,0 -0.784,0.196 -0.784,0.8119999 0,1.27399994 1.302,2.19799988 2.828,2.19799988 1.708,0 2.982,-1.27399991 2.982,-2.70199978 z" /></g><path
         id="path26"
         style="fill:#8dcbff;fill-opacity:1;fill-rule:nonzero;stroke:none"
         d="m 5.668,104.422 h 106.066 v 21.695 H 5.668 Z" /><g
         id="text30"
         style="font-variant:normal;font-weight:normal;font-size:13.99999905px;font-family:'LM Roman 10';-inkscape-font-specification:LMRoman10-Regular;writing-mode:lr-tb;fill:#000000;fill-opacity:1;fill-rule:nonzero;stroke:none"
         transform="translate(28.142923,120.05072)"
         aria-label="Conv 1×1"><path
           id="path927"
           style=""
           d="m 9.3099994,-3.2619998 c 0,-0.14 0,-0.238 -0.182,-0.238 -0.154,0 -0.154,0.084 -0.168,0.224 -0.112,2.0019999 -1.6099999,3.14999981 -3.1359998,3.14999981 -0.8539999,0 -3.5979998,-0.47599997 -3.5979998,-4.64799971 0,-4.1859997 2.7299999,-4.6619997 3.5839998,-4.6619997 1.5259999,0 2.7719998,1.274 3.0519998,3.3179998 0.028,0.196 0.028,0.238 0.224,0.238 0.224,0 0.224,-0.042 0.224,-0.336 v -3.3179998 c 0,-0.2379999 0,-0.3359999 -0.154,-0.3359999 -0.056,0 -0.112,0 -0.224,0.168 l -0.7,1.0359999 c -0.5179999,-0.504 -1.2319999,-1.2039999 -2.5759998,-1.2039999 -2.6179998,0 -4.87199965,2.2259998 -4.87199965,5.0819996 0,2.8979998 2.26799985,5.09599968 4.87199965,5.09599968 2.2819999,0 3.6539998,-1.94599988 3.6539998,-3.56999978 z" /><path
           id="path929"
           style=""
           d="m 16.701998,-2.9959998 c 0,-1.7919999 -1.4,-3.2759998 -3.093999,-3.2759998 -1.75,0 -3.108,1.5259999 -3.108,3.2759998 0,1.8059999 1.456,3.14999979 3.094,3.14999979 1.693999,0 3.107999,-1.37199989 3.107999,-3.14999979 z m -1.162,-0.112 c 0,0.504 0,1.2599999 -0.308,1.8759999 -0.307999,0.62999994 -0.923999,1.03599991 -1.623999,1.03599991 -0.602,0 -1.218,-0.29399998 -1.596,-0.93799991 -0.35,-0.616 -0.35,-1.4699999 -0.35,-1.9739999 0,-0.546 0,-1.3019999 0.336,-1.9179999 0.378,-0.6439999 1.036,-0.9379999 1.596,-0.9379999 0.616,0 1.218,0.308 1.582,0.9099999 0.363999,0.602 0.363999,1.4139999 0.363999,1.9459999 z" /><path
           id="path931"
           style=""
           d="m 24.597997,0 v -0.43399997 c -0.728,0 -1.078,0 -1.092,-0.41999997 V -3.5279998 c 0,-1.2039999 0,-1.6379998 -0.434,-2.1419998 -0.195999,-0.238 -0.657999,-0.518 -1.469999,-0.518 -1.022,0 -1.68,0.602 -2.072,1.4699999 v -1.4699999 l -1.974,0.154 v 0.434 c 0.98,0 1.092,0.098 1.092,0.7839999 v 3.7519998 c 0,0.62999993 -0.154,0.62999993 -1.092,0.62999993 V 0 l 1.582,-0.042 1.568,0.042 v -0.43399997 c -0.938,0 -1.092,0 -1.092,-0.62999993 v -2.5759999 c 0,-1.4559999 0.994,-2.2399998 1.89,-2.2399998 0.882,0 1.036,0.7559999 1.036,1.5539999 v 3.2619998 c 0,0.62999993 -0.154,0.62999993 -1.092,0.62999993 V 0 l 1.581999,-0.042 z" /><path
           id="path933"
           style=""
           d="m 31.639997,-5.5999996 v -0.434 c -0.321999,0.028 -0.727999,0.042 -1.049999,0.042 l -1.218,-0.042 v 0.434 c 0.518,0.014 0.672,0.336 0.672,0.6019999 0,0.126 -0.028,0.182 -0.084,0.336 l -1.428,3.5699998 -1.568,-3.9059998 c -0.084,-0.1819999 -0.084,-0.2379999 -0.084,-0.2379999 0,-0.364 0.546,-0.364 0.798,-0.364 v -0.434 l -1.526,0.042 c -0.378,0 -0.938,-0.014 -1.358,-0.042 v 0.434 c 0.882,0 0.938,0.084 1.12,0.5179999 l 2.016,4.96999971 c 0.084,0.19599998 0.112,0.26599998 0.294,0.26599998 0.182,0 0.238,-0.12599999 0.294,-0.26599998 l 1.834,-4.54999971 c 0.126,-0.322 0.364,-0.9239999 1.287999,-0.9379999 z" /><path
           id="path935"
           style=""
           d="m 42.447997,0 v -0.43399997 h -0.448 c -1.26,0 -1.302,-0.15399999 -1.302,-0.67199993 v -7.8539995 c 0,-0.336 0,-0.364 -0.322,-0.364 -0.868,0.896 -2.1,0.896 -2.548,0.896 v 0.4339999 c 0.28,0 1.106,0 1.834,-0.3639999 v 7.2519995 c 0,0.50399994 -0.042,0.67199993 -1.302,0.67199993 h -0.448 V 0 c 0.49,-0.042 1.708,-0.042 2.268,-0.042 0.56,0 1.778,0 2.268,0.042 z" /><path
           id="path937"
           style=""
           d="m 52.317996,-0.20999999 c 0.196,-0.19599998 0.014,-0.37799997 -0.126,-0.51799996 l -2.771999,-2.77199985 2.757999,-2.7719998 c 0.14,-0.14 0.336,-0.322 0.14,-0.5179999 -0.21,-0.196 -0.392,-0.014 -0.532,0.126 l -2.757999,2.7579998 -2.772,-2.7719998 c -0.14,-0.14 -0.322,-0.322 -0.532,-0.126 -0.196,0.196 0,0.3919999 0.14,0.5319999 l 2.772,2.7719998 -2.772,2.77199985 c -0.14,0.13999999 -0.336,0.32199998 -0.14,0.51799996 0.21,0.19599999 0.392,0.014 0.532,-0.12599999 l 2.772,-2.77199982 2.771999,2.77199982 c 0.14,0.13999999 0.322,0.32199998 0.518,0.12599999 z" /><path
           id="path939"
           style=""
           d="m 60.339995,0 v -0.43399997 h -0.448 c -1.26,0 -1.302,-0.15399999 -1.302,-0.67199993 v -7.8539995 c 0,-0.336 0,-0.364 -0.322,-0.364 -0.868,0.896 -2.1,0.896 -2.548,0.896 v 0.4339999 c 0.28,0 1.106,0 1.834,-0.3639999 v 7.2519995 c 0,0.50399994 -0.042,0.67199993 -1.302,0.67199993 h -0.448 V 0 c 0.49,-0.042 1.708,-0.042 2.268,-0.042 0.56,0 1.778,0 2.268,0.042 z" /></g><g
         id="g32"><path
           id="path34"
           style="fill:none;stroke:#000000;stroke-width:0.75118101;stroke-linecap:butt;stroke-linejoin:miter;stroke-miterlimit:4;stroke-dasharray:none;stroke-opacity:1"
           d="m 58.703,36.117 v 8.305" /></g><g
         transform="rotate(-90)"
         id="g36"><path
           id="path38"
           style="fill:#000000;fill-opacity:1;fill-rule:evenodd;stroke:#000000;stroke-width:0.40063;stroke-linecap:butt;stroke-linejoin:miter;stroke-miterlimit:4;stroke-dasharray:none;stroke-opacity:1"
           d="m -41.418,58.703 1.504,-1.504 -5.258,1.504 5.258,1.5 z" /></g><g
         id="g40"><path
           id="path42"
           style="fill:none;stroke:#000000;stroke-width:0.75118101;stroke-linecap:butt;stroke-linejoin:miter;stroke-miterlimit:4;stroke-dasharray:none;stroke-opacity:1"
           d="m 58.703,66.117 v 8.305" /></g><g
         transform="rotate(-90)"
         id="g44"><path
           id="path46"
           style="fill:#000000;fill-opacity:1;fill-rule:evenodd;stroke:#000000;stroke-width:0.40063;stroke-linecap:butt;stroke-linejoin:miter;stroke-miterlimit:4;stroke-dasharray:none;stroke-opacity:1"
           d="m -71.418,58.703 1.504,-1.504 -5.258,1.504 5.258,1.5 z" /></g><g
         id="g48"><path
           id="path50"
           style="fill:none;stroke:#000000;stroke-width:0.75118101;stroke-linecap:butt;stroke-linejoin:miter;stroke-miterlimit:4;stroke-dasharray:none;stroke-opacity:1"
           d="m 58.703,96.117 v 8.305" /></g><g
         transform="rotate(-90)"
         id="g52"><path
           id="path54"
           style="fill:#000000;fill-opacity:1;fill-rule:evenodd;stroke:#000000;stroke-width:0.40063;stroke-linecap:butt;stroke-linejoin:miter;stroke-miterlimit:4;stroke-dasharray:none;stroke-opacity:1"
           d="m -101.418,58.703 1.504,-1.504 -5.258,1.504 5.258,1.5 z" /></g><g
         id="g56"><path
           id="path58"
           style="fill:none;stroke:#000000;stroke-width:0.75118101;stroke-linecap:butt;stroke-linejoin:miter;stroke-miterlimit:4;stroke-dasharray:none;stroke-opacity:1"
           d="m 58.703,126.117 v 8.305" /></g><g
         transform="rotate(-90)"
         id="g60"><path
           id="path62"
           style="fill:#000000;fill-opacity:1;fill-rule:evenodd;stroke:#000000;stroke-width:0.40063;stroke-linecap:butt;stroke-linejoin:miter;stroke-miterlimit:4;stroke-dasharray:none;stroke-opacity:1"
           d="m -131.418,58.703 1.504,-1.504 -5.258,1.504 5.258,1.5 z" /></g><path
         id="path64"
         style="fill:#8dcbff;fill-opacity:1;fill-rule:nonzero;stroke:none"
         d="M 5.668,14.422 H 111.734 V 36.117 H 5.668 Z" /><g
         id="text68"
         style="font-variant:normal;font-weight:normal;font-size:13.99999905px;font-family:'LM Roman 10';-inkscape-font-specification:LMRoman10-Regular;writing-mode:lr-tb;fill:#000000;fill-opacity:1;fill-rule:nonzero;stroke:none"
         transform="translate(28.142923,30.050731)"
         aria-label="Conv 1×1"><path
           id="path912"
           style=""
           d="m 9.3099994,-3.2619998 c 0,-0.14 0,-0.238 -0.182,-0.238 -0.154,0 -0.154,0.084 -0.168,0.224 -0.112,2.0019999 -1.6099999,3.14999981 -3.1359998,3.14999981 -0.8539999,0 -3.5979998,-0.47599997 -3.5979998,-4.64799971 0,-4.1859997 2.7299999,-4.6619997 3.5839998,-4.6619997 1.5259999,0 2.7719998,1.274 3.0519998,3.3179998 0.028,0.196 0.028,0.238 0.224,0.238 0.224,0 0.224,-0.042 0.224,-0.336 v -3.3179998 c 0,-0.2379999 0,-0.3359999 -0.154,-0.3359999 -0.056,0 -0.112,0 -0.224,0.168 l -0.7,1.0359999 c -0.5179999,-0.504 -1.2319999,-1.2039999 -2.5759998,-1.2039999 -2.6179998,0 -4.87199965,2.2259998 -4.87199965,5.0819996 0,2.8979998 2.26799985,5.09599968 4.87199965,5.09599968 2.2819999,0 3.6539998,-1.94599988 3.6539998,-3.56999978 z" /><path
           id="path914"
           style=""
           d="m 16.701998,-2.9959998 c 0,-1.7919999 -1.4,-3.2759998 -3.093999,-3.2759998 -1.75,0 -3.108,1.5259999 -3.108,3.2759998 0,1.8059999 1.456,3.14999979 3.094,3.14999979 1.693999,0 3.107999,-1.37199989 3.107999,-3.14999979 z m -1.162,-0.112 c 0,0.504 0,1.2599999 -0.308,1.8759999 -0.307999,0.62999994 -0.923999,1.03599991 -1.623999,1.03599991 -0.602,0 -1.218,-0.29399998 -1.596,-0.93799991 -0.35,-0.616 -0.35,-1.4699999 -0.35,-1.9739999 0,-0.546 0,-1.3019999 0.336,-1.9179999 0.378,-0.6439999 1.036,-0.9379999 1.596,-0.9379999 0.616,0 1.218,0.308 1.582,0.9099999 0.363999,0.602 0.363999,1.4139999 0.363999,1.9459999 z" /><path
           id="path916"
           style=""
           d="m 24.597997,0 v -0.43399997 c -0.728,0 -1.078,0 -1.092,-0.41999997 V -3.5279998 c 0,-1.2039999 0,-1.6379998 -0.434,-2.1419998 -0.195999,-0.238 -0.657999,-0.518 -1.469999,-0.518 -1.022,0 -1.68,0.602 -2.072,1.4699999 v -1.4699999 l -1.974,0.154 v 0.434 c 0.98,0 1.092,0.098 1.092,0.7839999 v 3.7519998 c 0,0.62999993 -0.154,0.62999993 -1.092,0.62999993 V 0 l 1.582,-0.042 1.568,0.042 v -0.43399997 c -0.938,0 -1.092,0 -1.092,-0.62999993 v -2.5759999 c 0,-1.4559999 0.994,-2.2399998 1.89,-2.2399998 0.882,0 1.036,0.7559999 1.036,1.5539999 v 3.2619998 c 0,0.62999993 -0.154,0.62999993 -1.092,0.62999993 V 0 l 1.581999,-0.042 z" /><path
           id="path918"
           style=""
           d="m 31.639997,-5.5999996 v -0.434 c -0.321999,0.028 -0.727999,0.042 -1.049999,0.042 l -1.218,-0.042 v 0.434 c 0.518,0.014 0.672,0.336 0.672,0.6019999 0,0.126 -0.028,0.182 -0.084,0.336 l -1.428,3.5699998 -1.568,-3.9059998 c -0.084,-0.1819999 -0.084,-0.2379999 -0.084,-0.2379999 0,-0.364 0.546,-0.364 0.798,-0.364 v -0.434 l -1.526,0.042 c -0.378,0 -0.938,-0.014 -1.358,-0.042 v 0.434 c 0.882,0 0.938,0.084 1.12,0.5179999 l 2.016,4.96999971 c 0.084,0.19599998 0.112,0.26599998 0.294,0.26599998 0.182,0 0.238,-0.12599999 0.294,-0.26599998 l 1.834,-4.54999971 c 0.126,-0.322 0.364,-0.9239999 1.287999,-0.9379999 z" /><path
           id="path920"
           style=""
           d="m 42.447997,0 v -0.43399997 h -0.448 c -1.26,0 -1.302,-0.15399999 -1.302,-0.67199993 v -7.8539995 c 0,-0.336 0,-0.364 -0.322,-0.364 -0.868,0.896 -2.1,0.896 -2.548,0.896 v 0.4339999 c 0.28,0 1.106,0 1.834,-0.3639999 v 7.2519995 c 0,0.50399994 -0.042,0.67199993 -1.302,0.67199993 h -0.448 V 0 c 0.49,-0.042 1.708,-0.042 2.268,-0.042 0.56,0 1.778,0 2.268,0.042 z" /><path
           id="path922"
           style=""
           d="m 52.317996,-0.20999999 c 0.196,-0.19599998 0.014,-0.37799997 -0.126,-0.51799996 l -2.771999,-2.77199985 2.757999,-2.7719998 c 0.14,-0.14 0.336,-0.322 0.14,-0.5179999 -0.21,-0.196 -0.392,-0.014 -0.532,0.126 l -2.757999,2.7579998 -2.772,-2.7719998 c -0.14,-0.14 -0.322,-0.322 -0.532,-0.126 -0.196,0.196 0,0.3919999 0.14,0.5319999 l 2.772,2.7719998 -2.772,2.77199985 c -0.14,0.13999999 -0.336,0.32199998 -0.14,0.51799996 0.21,0.19599999 0.392,0.014 0.532,-0.12599999 l 2.772,-2.77199982 2.771999,2.77199982 c 0.14,0.13999999 0.322,0.32199998 0.518,0.12599999 z" /><path
           id="path924"
           style=""
           d="m 60.339995,0 v -0.43399997 h -0.448 c -1.26,0 -1.302,-0.15399999 -1.302,-0.67199993 v -7.8539995 c 0,-0.336 0,-0.364 -0.322,-0.364 -0.868,0.896 -2.1,0.896 -2.548,0.896 v 0.4339999 c 0.28,0 1.106,0 1.834,-0.3639999 v 7.2519995 c 0,0.50399994 -0.042,0.67199993 -1.302,0.67199993 h -0.448 V 0 c 0.49,-0.042 1.708,-0.042 2.268,-0.042 0.56,0 1.778,0 2.268,0.042 z" /></g><g
         id="g70"><path
           id="path72"
           style="fill:none;stroke:#000000;stroke-width:0.75;stroke-linecap:butt;stroke-linejoin:miter;stroke-miterlimit:4;stroke-dasharray:none;stroke-opacity:1"
           d="M 58.703,2.836 V 13.551" /></g><g
         transform="rotate(-90)"
         id="g74"><path
           id="path76"
           style="fill:#000000;fill-opacity:1;fill-rule:evenodd;stroke:#000000;stroke-width:0.40000001;stroke-linecap:butt;stroke-linejoin:miter;stroke-miterlimit:4;stroke-dasharray:none;stroke-opacity:1"
           d="m -10.551,58.703 1.5,-1.5 -5.25,1.5 5.25,1.5 z" /></g><path
         id="path78"
         style="fill:#8dcbff;fill-opacity:1;fill-rule:nonzero;stroke:none"
         d="m 5.668,134.422 h 106.066 v 21.695 H 5.668 Z" /><g
         id="text82"
         style="font-variant:normal;font-weight:normal;font-size:13.99999905px;font-family:'LM Roman 10';-inkscape-font-specification:LMRoman10-Regular;writing-mode:lr-tb;fill:#000000;fill-opacity:1;fill-rule:nonzero;stroke:none"
         transform="translate(28.142923,150.05074)"
         aria-label="Conv 1×1"><path
           id="path897"
           style=""
           d="m 9.3099994,-3.2619998 c 0,-0.14 0,-0.238 -0.182,-0.238 -0.154,0 -0.154,0.084 -0.168,0.224 -0.112,2.0019999 -1.6099999,3.14999981 -3.1359998,3.14999981 -0.8539999,0 -3.5979998,-0.47599997 -3.5979998,-4.64799971 0,-4.1859997 2.7299999,-4.6619997 3.5839998,-4.6619997 1.5259999,0 2.7719998,1.274 3.0519998,3.3179998 0.028,0.196 0.028,0.238 0.224,0.238 0.224,0 0.224,-0.042 0.224,-0.336 v -3.3179998 c 0,-0.2379999 0,-0.3359999 -0.154,-0.3359999 -0.056,0 -0.112,0 -0.224,0.168 l -0.7,1.0359999 c -0.5179999,-0.504 -1.2319999,-1.2039999 -2.5759998,-1.2039999 -2.6179998,0 -4.87199965,2.2259998 -4.87199965,5.0819996 0,2.8979998 2.26799985,5.09599968 4.87199965,5.09599968 2.2819999,0 3.6539998,-1.94599988 3.6539998,-3.56999978 z" /><path
           id="path899"
           style=""
           d="m 16.701998,-2.9959998 c 0,-1.7919999 -1.4,-3.2759998 -3.093999,-3.2759998 -1.75,0 -3.108,1.5259999 -3.108,3.2759998 0,1.8059999 1.456,3.14999979 3.094,3.14999979 1.693999,0 3.107999,-1.37199989 3.107999,-3.14999979 z m -1.162,-0.112 c 0,0.504 0,1.2599999 -0.308,1.8759999 -0.307999,0.62999994 -0.923999,1.03599991 -1.623999,1.03599991 -0.602,0 -1.218,-0.29399998 -1.596,-0.93799991 -0.35,-0.616 -0.35,-1.4699999 -0.35,-1.9739999 0,-0.546 0,-1.3019999 0.336,-1.9179999 0.378,-0.6439999 1.036,-0.9379999 1.596,-0.9379999 0.616,0 1.218,0.308 1.582,0.9099999 0.363999,0.602 0.363999,1.4139999 0.363999,1.9459999 z" /><path
           id="path901"
           style=""
           d="m 24.597997,0 v -0.43399997 c -0.728,0 -1.078,0 -1.092,-0.41999997 V -3.5279998 c 0,-1.2039999 0,-1.6379998 -0.434,-2.1419998 -0.195999,-0.238 -0.657999,-0.518 -1.469999,-0.518 -1.022,0 -1.68,0.602 -2.072,1.4699999 v -1.4699999 l -1.974,0.154 v 0.434 c 0.98,0 1.092,0.098 1.092,0.7839999 v 3.7519998 c 0,0.62999993 -0.154,0.62999993 -1.092,0.62999993 V 0 l 1.582,-0.042 1.568,0.042 v -0.43399997 c -0.938,0 -1.092,0 -1.092,-0.62999993 v -2.5759999 c 0,-1.4559999 0.994,-2.2399998 1.89,-2.2399998 0.882,0 1.036,0.7559999 1.036,1.5539999 v 3.2619998 c 0,0.62999993 -0.154,0.62999993 -1.092,0.62999993 V 0 l 1.581999,-0.042 z" /><path
           id="path903"
           style=""
           d="m 31.639997,-5.5999996 v -0.434 c -0.321999,0.028 -0.727999,0.042 -1.049999,0.042 l -1.218,-0.042 v 0.434 c 0.518,0.014 0.672,0.336 0.672,0.6019999 0,0.126 -0.028,0.182 -0.084,0.336 l -1.428,3.5699998 -1.568,-3.9059998 c -0.084,-0.1819999 -0.084,-0.2379999 -0.084,-0.2379999 0,-0.364 0.546,-0.364 0.798,-0.364 v -0.434 l -1.526,0.042 c -0.378,0 -0.938,-0.014 -1.358,-0.042 v 0.434 c 0.882,0 0.938,0.084 1.12,0.5179999 l 2.016,4.96999971 c 0.084,0.19599998 0.112,0.26599998 0.294,0.26599998 0.182,0 0.238,-0.12599999 0.294,-0.26599998 l 1.834,-4.54999971 c 0.126,-0.322 0.364,-0.9239999 1.287999,-0.9379999 z" /><path
           id="path905"
           style=""
           d="m 42.447997,0 v -0.43399997 h -0.448 c -1.26,0 -1.302,-0.15399999 -1.302,-0.67199993 v -7.8539995 c 0,-0.336 0,-0.364 -0.322,-0.364 -0.868,0.896 -2.1,0.896 -2.548,0.896 v 0.4339999 c 0.28,0 1.106,0 1.834,-0.3639999 v 7.2519995 c 0,0.50399994 -0.042,0.67199993 -1.302,0.67199993 h -0.448 V 0 c 0.49,-0.042 1.708,-0.042 2.268,-0.042 0.56,0 1.778,0 2.268,0.042 z" /><path
           id="path907"
           style=""
           d="m 52.317996,-0.20999999 c 0.196,-0.19599998 0.014,-0.37799997 -0.126,-0.51799996 l -2.771999,-2.77199985 2.757999,-2.7719998 c 0.14,-0.14 0.336,-0.322 0.14,-0.5179999 -0.21,-0.196 -0.392,-0.014 -0.532,0.126 l -2.757999,2.7579998 -2.772,-2.7719998 c -0.14,-0.14 -0.322,-0.322 -0.532,-0.126 -0.196,0.196 0,0.3919999 0.14,0.5319999 l 2.772,2.7719998 -2.772,2.77199985 c -0.14,0.13999999 -0.336,0.32199998 -0.14,0.51799996 0.21,0.19599999 0.392,0.014 0.532,-0.12599999 l 2.772,-2.77199982 2.771999,2.77199982 c 0.14,0.13999999 0.322,0.32199998 0.518,0.12599999 z" /><path
           id="path909"
           style=""
           d="m 60.339995,0 v -0.43399997 h -0.448 c -1.26,0 -1.302,-0.15399999 -1.302,-0.67199993 v -7.8539995 c 0,-0.336 0,-0.364 -0.322,-0.364 -0.868,0.896 -2.1,0.896 -2.548,0.896 v 0.4339999 c 0.28,0 1.106,0 1.834,-0.3639999 v 7.2519995 c 0,0.50399994 -0.042,0.67199993 -1.302,0.67199993 h -0.448 V 0 c 0.49,-0.042 1.708,-0.042 2.268,-0.042 0.56,0 1.778,0 2.268,0.042 z" /></g><g
         id="g84"><path
           id="path86"
           style="fill:none;stroke:#000000;stroke-width:0.75;stroke-linecap:butt;stroke-linejoin:miter;stroke-miterlimit:4;stroke-dasharray:none;stroke-opacity:1"
           d="m 58.703,155.836 v 6.562" /></g><g
         transform="rotate(-90)"
         id="g88"><path
           id="path90"
           style="fill:#000000;fill-opacity:1;fill-rule:evenodd;stroke:#000000;stroke-width:0.40000001;stroke-linecap:butt;stroke-linejoin:miter;stroke-miterlimit:4;stroke-dasharray:none;stroke-opacity:1"
           d="m -159.398,58.703 1.5,-1.5 -5.25,1.5 5.25,1.5 z" /></g></g></g></svg>