<?xml version="1.0" encoding="UTF-8" standalone="no"?>
<svg
   xmlns:dc="http://purl.org/dc/elements/1.1/"
   xmlns:cc="http://creativecommons.org/ns#"
   xmlns:rdf="http://www.w3.org/1999/02/22-rdf-syntax-ns#"
   xmlns:svg="http://www.w3.org/2000/svg"
   xmlns="http://www.w3.org/2000/svg"
   xmlns:sodipodi="http://sodipodi.sourceforge.net/DTD/sodipodi-0.dtd"
   xmlns:inkscape="http://www.inkscape.org/namespaces/inkscape"
   viewBox="0 0 337.40039 206.99318"
   height="206.99318"
   width="337.40039"
   xml:space="preserve"
   id="svg2"
   version="1.1"
   sodipodi:docname="resnetfig.svg"
   inkscape:version="0.92.3 (2405546, 2018-03-11)"><sodipodi:namedview
     pagecolor="#ffffff"
     bordercolor="#666666"
     borderopacity="1"
     objecttolerance="10"
     gridtolerance="10"
     guidetolerance="10"
     inkscape:pageopacity="0"
     inkscape:pageshadow="2"
     inkscape:window-width="1916"
     inkscape:window-height="1023"
     id="namedview1025"
     showgrid="false"
     fit-margin-top="5"
     fit-margin-left="5"
     fit-margin-right="5"
     fit-margin-bottom="5"
     inkscape:zoom="1.8021"
     inkscape:cx="58.751965"
     inkscape:cy="103.4969"
     inkscape:window-x="0"
     inkscape:window-y="24"
     inkscape:window-maximized="0"
     inkscape:current-layer="svg2" /><metadata
     id="metadata8"><rdf:RDF><cc:Work
         rdf:about=""><dc:format>image/svg+xml</dc:format><dc:type
           rdf:resource="http://purl.org/dc/dcmitype/StillImage" /><dc:title></dc:title></cc:Work></rdf:RDF></metadata><defs
     id="defs6" /><g
     style="display:inline"
     transform="matrix(2.6666666,0,0,2.6666666,-21.229333,-10.121489)"
     id="g10"><g
       id="g12"><g
         transform="scale(1,-1)"
         id="g14"><path
           id="path16"
           style="fill:none;stroke:#000000;stroke-width:0.68118101;stroke-linecap:round;stroke-linejoin:round;stroke-miterlimit:10;stroke-dasharray:none;stroke-opacity:1"
           d="m 57.848,-30.523 v -9.262"
           inkscape:connector-curvature="0" /></g><path
         id="path18"
         style="fill:#000000;fill-opacity:1;fill-rule:evenodd;stroke:none"
         d="m 57.848,42.727 -1.961,-3.922 c 1.199,0.652 2.722,0.652 3.922,0 l -1.961,3.922"
         inkscape:connector-curvature="0" /><g
         transform="scale(1,-1)"
         id="g20"><path
           id="path22"
           style="fill:none;stroke:#000000;stroke-width:0.68118101;stroke-linecap:round;stroke-linejoin:round;stroke-miterlimit:10;stroke-dasharray:none;stroke-opacity:1"
           d="m 57.848,-6.016 v -9.257"
           inkscape:connector-curvature="0" /></g><path
         id="path24"
         style="fill:#000000;fill-opacity:1;fill-rule:evenodd;stroke:none"
         d="m 57.848,18.215 -1.961,-3.922 c 1.199,0.656 2.722,0.656 3.922,0 l -1.961,3.922"
         inkscape:connector-curvature="0" /><g
         transform="scale(1,-1)"
         id="g26"><path
           id="path28"
           style="fill:none;stroke:#000000;stroke-width:0.68118101;stroke-linecap:round;stroke-linejoin:round;stroke-miterlimit:10;stroke-dasharray:none;stroke-opacity:1"
           d="m 57.848,-55.035 v -5.121"
           inkscape:connector-curvature="0" /></g><path
         id="path30"
         style="fill:#000000;fill-opacity:1;fill-rule:evenodd;stroke:none"
         d="m 57.848,63.203 -1.961,-4.031 c 1.199,0.656 2.722,0.656 3.922,0 l -1.961,4.031"
         inkscape:connector-curvature="0" /><path
         id="path32"
         style="fill:#ffffff;fill-opacity:1;fill-rule:evenodd;stroke:none"
         d="m 61.879,67.234 c 0,-2.179 -1.742,-4.031 -4.031,-4.031 -2.289,0 -4.141,1.852 -4.141,4.031 0,2.289 1.852,4.141 4.141,4.141 2.289,0 4.031,-1.852 4.031,-4.141"
         inkscape:connector-curvature="0" /><path
         id="path34"
         style="fill:#000000;fill-opacity:1;fill-rule:evenodd;stroke:none"
         d="m 57.848,79.543 -1.961,-4.031 c 1.199,0.656 2.722,0.656 3.922,0 l -1.961,4.031"
         inkscape:connector-curvature="0" /><g
         transform="scale(1,-1)"
         id="g36"><path
           id="path38"
           style="fill:none;stroke:#000000;stroke-width:0.68118101;stroke-linecap:round;stroke-linejoin:round;stroke-miterlimit:10;stroke-dasharray:none;stroke-opacity:1"
           d="m 61.879,-10.047 c 38.562,0 44.769,-15.141 42.59,-36.055 -1.09,-9.695 -3.918,-20.586 -39.539,-21.132"
           inkscape:connector-curvature="0" /></g><path
         id="path40"
         style="fill:#000000;fill-opacity:1;fill-rule:evenodd;stroke:none"
         d="m 61.879,67.234 4.027,1.961 c -0.652,-1.199 -0.652,-2.722 0,-3.922 l -4.027,1.961"
         inkscape:connector-curvature="0" /><g
         transform="scale(1,-1)"
         id="g42"><path
           id="path44"
           style="fill:none;stroke:#000000;stroke-width:0.68118101;stroke-linecap:round;stroke-linejoin:round;stroke-miterlimit:10;stroke-dasharray:none;stroke-opacity:1"
           d="m 57.848,-10.047 h 4.031"
           inkscape:connector-curvature="0" /></g><g
         transform="scale(1,-1)"
         id="g46"><path
           id="path48"
           style="fill:none;stroke:#000000;stroke-width:0.68118101;stroke-linecap:round;stroke-linejoin:round;stroke-miterlimit:10;stroke-dasharray:none;stroke-opacity:1"
           d="m 57.848,-71.375 v -5.117"
           inkscape:connector-curvature="0" /></g><g
         transform="scale(1,-1)"
         id="g50"><path
           id="path52"
           style="fill:#8dcbff;fill-opacity:1;fill-rule:nonzero;stroke:#8dcbff;stroke-width:0.68118101;stroke-linecap:round;stroke-linejoin:round;stroke-miterlimit:10;stroke-dasharray:none;stroke-opacity:1"
           d="M 31.27,-18.215 H 84.426 V -30.524 H 31.27 Z"
           inkscape:connector-curvature="0" /></g><g
         transform="scale(1,-1)"
         id="g54"><path
           id="path56"
           style="fill:#8dcbff;fill-opacity:1;fill-rule:nonzero;stroke:#8dcbff;stroke-width:0.68118101;stroke-linecap:round;stroke-linejoin:round;stroke-miterlimit:10;stroke-dasharray:none;stroke-opacity:1"
           d="M 31.27,-42.727 H 84.426 V -55.036 H 31.27 Z"
           inkscape:connector-curvature="0" /></g><g
         transform="scale(1,-1)"
         id="g58"><path
           id="path60"
           style="fill:#8dcbff;fill-opacity:1;fill-rule:nonzero;stroke:#8dcbff;stroke-width:0.68118101;stroke-linecap:round;stroke-linejoin:round;stroke-miterlimit:10;stroke-dasharray:none;stroke-opacity:1"
           d="m 61.879,-67.234 c 0,2.179 -1.742,4.031 -4.031,4.031 -2.289,0 -4.141,-1.852 -4.141,-4.031 0,-2.289 1.852,-4.141 4.141,-4.141 2.289,0 4.031,1.852 4.031,4.141 z"
           inkscape:connector-curvature="0" /></g><g
         transform="scale(1,-1)"
         id="g62"><path
           id="path64"
           style="fill:none;stroke:#000000;stroke-width:0.68118101;stroke-linecap:round;stroke-linejoin:round;stroke-miterlimit:10;stroke-dasharray:none;stroke-opacity:1"
           d="m 55.777,-67.234 h 4.141"
           inkscape:connector-curvature="0" /></g><g
         transform="scale(1,-1)"
         id="g66"><path
           id="path68"
           style="fill:none;stroke:#000000;stroke-width:0.68118101;stroke-linecap:round;stroke-linejoin:round;stroke-miterlimit:10;stroke-dasharray:none;stroke-opacity:1"
           d="m 57.848,-69.305 v 4.032"
           inkscape:connector-curvature="0" /></g><g
         id="text76"
         style="font-variant:normal;font-weight:normal;font-size:7.85549784px;font-family:'LM Roman 10';-inkscape-font-specification:LMRoman10-Regular;writing-mode:lr-tb;fill:#000000;fill-opacity:1;fill-rule:nonzero;stroke:none"
         transform="matrix(0.99954223,0,0,1,37.262631,50.79671)"
         aria-label="weight layer weight layer identity"><path
           id="path930"
           d="m 5.522415,-3.1421991 v -0.2435205 c -0.172821,0.015711 -0.4006304,0.023566 -0.5734514,0.023566 l -0.7305613,-0.023566 v 0.2435205 c 0.282798,0.00786 0.4556189,0.1492544 0.4556189,0.3770639 0,0.047133 0,0.062844 -0.039278,0.1649654 L 3.9198934,-0.58916234 3.1421991,-2.7808462 c -0.031422,-0.094266 -0.039277,-0.109977 -0.039277,-0.1492545 0,-0.2120984 0.3063645,-0.2120984 0.4634744,-0.2120984 v -0.2435205 l -0.8169718,0.023566 c -0.2356649,0 -0.4634743,-0.00786 -0.6991393,-0.023566 v 0.2435205 c 0.2906535,0 0.4163414,0.015711 0.4948964,0.1178324 0.039278,0.047133 0.125688,0.282798 0.1806764,0.4320524 L 2.0502849,-0.69128381 1.3040126,-2.7887017 c -0.039277,-0.094266 -0.039277,-0.109977 -0.039277,-0.141399 0,-0.2120984 0.3063644,-0.2120984 0.4634743,-0.2120984 v -0.2435205 l -0.85624924,0.023566 -0.7305613,-0.023566 v 0.2435205 c 0.39277489,0 0.48704087,0.023566 0.58130684,0.2749424 l 0.9897927,2.78084622 c 0.039278,0.10997697 0.062844,0.17282096 0.1649655,0.17282096 0.1021215,0 0.1178325,-0.04713299 0.1571099,-0.15710996 L 2.8279792,-2.2938054 3.62924,-0.06284398 c 0.031422,0.08641047 0.054989,0.14925446 0.15711,0.14925446 0.1021214,0 0.1256879,-0.07069948 0.1571099,-0.14925446 L 4.8625532,-2.6394473 C 5.0039521,-3.0322222 5.2474726,-3.1343436 5.522415,-3.1421991 Z"
           inkscape:connector-curvature="0" /><path
           id="path932"
           d="m 8.7196025,-0.93480424 c 0,-0.078555 -0.062844,-0.094266 -0.1021215,-0.094266 -0.070699,0 -0.08641,0.047133 -0.1021215,0.10997679 -0.2749424,0.80911628 -0.9819372,0.80911628 -1.0604922,0.80911628 -0.3927749,0 -0.7069948,-0.23566493 -0.8876712,-0.52631835 C 6.3315311,-1.0133592 6.3315311,-1.5318221 6.3315311,-1.81462 H 8.523215 c 0.172821,0 0.1963875,0 0.1963875,-0.1649655 0,-0.7776942 -0.4241969,-1.5396775 -1.4061341,-1.5396775 -0.9112378,0 -1.6339436,0.8091162 -1.6339436,1.7910535 0,1.05263669 0.8248273,1.81461998 1.7282095,1.81461998 0.9583708,0 1.3118682,-0.87196026 1.3118682,-1.02121472 z M 8.2011396,-1.9795855 h -1.861753 c 0.047133,-1.1704691 0.7069948,-1.3668566 0.9740818,-1.3668566 0.8091163,0 0.8876712,1.0604922 0.8876712,1.3668566 z"
           inkscape:connector-curvature="0" /><path
           id="path934"
           d="m 10.88772,0 v -0.24352043 c -0.518462,0 -0.549884,-0.0392775 -0.549884,-0.34564191 V -3.47213 l -1.0997701,0.08641 v 0.2435205 c 0.5106074,0 0.5813069,0.047133 0.5813069,0.4320523 v 2.11312896 c 0,0.35349741 -0.08641,0.35349741 -0.6127289,0.35349741 V 0 l 0.8641051,-0.02356649 c 0.274942,0 0.549885,0.01571099 0.816971,0.02356649 z m -0.432052,-4.7447207 c 0,-0.2120984 -0.180676,-0.4163414 -0.416341,-0.4163414 -0.2670872,0 -0.4241972,0.219954 -0.4241972,0.4163414 0,0.2120984 0.1806765,0.4163414 0.4163412,0.4163414 0.267087,0 0.424197,-0.2199539 0.424197,-0.4163414 z"
           inkscape:connector-curvature="0" /><path
           id="path936"
           d="m 14.941157,-3.1736211 c 0,-0.1335435 -0.09427,-0.3849194 -0.40063,-0.3849194 -0.15711,0 -0.502752,0.047133 -0.832683,0.3692084 -0.329931,-0.2592315 -0.659862,-0.2827979 -0.832683,-0.2827979 -0.730561,0 -1.27259,0.5420293 -1.27259,1.1469026 0,0.3456419 0.172821,0.6441509 0.369208,0.8091163 -0.102121,0.1178325 -0.24352,0.3770639 -0.24352,0.65200634 0,0.24352043 0.102121,0.54202935 0.345642,0.69913931 -0.47133,0.13354346 -0.722706,0.47132987 -0.722706,0.78554978 0,0.56559587 0.777694,0.99764827 1.736065,0.99764827 0.926949,0 1.74392,-0.4006304 1.74392,-1.01335927 0,-0.27494242 -0.109977,-0.67557281 -0.510607,-0.89552675 -0.416341,-0.21995394 -0.87196,-0.21995394 -1.351146,-0.21995394 -0.196387,0 -0.534174,0 -0.589162,-0.007856 -0.251376,-0.031422 -0.416341,-0.27494242 -0.416341,-0.52631834 0,-0.031422 0,-0.2120985 0.133543,-0.3692084 0.306364,0.2199539 0.62844,0.2435204 0.777694,0.2435204 0.730562,0 1.272591,-0.5420293 1.272591,-1.1469027 0,-0.2906534 -0.125688,-0.5813068 -0.322075,-0.7619833 0.282798,-0.2670869 0.565595,-0.3063644 0.706994,-0.3063644 0,0 0.05499,0 0.07855,0.00786 -0.08641,0.031422 -0.125688,0.1178325 -0.125688,0.2120985 0,0.1335434 0.102122,0.2278094 0.22781,0.2278094 0.07855,0 0.227809,-0.054988 0.227809,-0.2356649 z m -1.382567,0.8483937 c 0,0.2120985 -0.0079,0.4634744 -0.125688,0.6598619 -0.06284,0.094266 -0.243521,0.3142199 -0.557741,0.3142199 -0.683428,0 -0.683428,-0.7855498 -0.683428,-0.9662263 0,-0.2120984 0.0079,-0.4634743 0.125688,-0.6598618 0.06284,-0.094266 0.24352,-0.3142199 0.55774,-0.3142199 0.683429,0 0.683429,0.7855498 0.683429,0.9662262 z m 0.864104,2.94581173 c 0,0.42419687 -0.55774,0.81697177 -1.327579,0.81697177 -0.793405,0 -1.335434,-0.4006304 -1.335434,-0.81697177 0,-0.3613529 0.298509,-0.65200632 0.64415,-0.67557281 h 0.463475 c 0.675573,0 1.555388,0 1.555388,0.67557281 z"
           inkscape:connector-curvature="0" /><path
           id="path938"
           d="m 19.261681,0 v -0.24352043 c -0.408486,0 -0.604873,0 -0.612729,-0.23566494 V -1.9795855 c 0,-0.6755728 0,-0.9190932 -0.24352,-1.2018911 -0.109977,-0.1335435 -0.369209,-0.2906534 -0.824828,-0.2906534 -0.659861,0 -1.005503,0.4713298 -1.131191,0.7541277 h -0.0079 v -2.7337132 l -1.131192,0.08641 v 0.2435204 c 0.549885,0 0.612729,0.054988 0.612729,0.4399079 v 4.08485886 c 0,0.35349741 -0.08641,0.35349741 -0.612729,0.35349741 V 0 L 16.198037,-0.02356649 17.077852,0 v -0.24352043 c -0.526318,0 -0.612728,0 -0.612728,-0.35349741 V -2.0424294 c 0,-0.8169718 0.55774,-1.2568797 1.060492,-1.2568797 0.494896,0 0.581307,0.4241969 0.581307,0.8719603 v 1.83033096 c 0,0.35349741 -0.08641,0.35349741 -0.612729,0.35349741 V 0 l 0.887671,-0.02356649 z"
           inkscape:connector-curvature="0" /><path
           id="path940"
           d="M 21.814717,-0.97408173 V -1.4218451 H 21.61833 v 0.43205237 c 0,0.58130684 -0.235665,0.87981576 -0.526319,0.87981576 -0.526318,0 -0.526318,-0.7148503 -0.526318,-0.84839377 V -3.1421991 h 1.123336 v -0.2435205 h -1.123336 v -1.4454116 h -0.196388 c -0.0079,0.6441509 -0.24352,1.4846891 -1.013359,1.5161111 v 0.172821 h 0.667718 v 2.16811737 c 0,0.96622623 0.730561,1.06049221 1.013359,1.06049221 0.55774,0 0.777694,-0.55774035 0.777694,-1.06049221 z"
           inkscape:connector-curvature="0" /><path
           id="path942"
           d="m 26.881515,0 v -0.24352043 c -0.526319,0 -0.612729,0 -0.612729,-0.35349741 V -5.4517155 l -1.131192,0.08641 v 0.2435204 c 0.549885,0 0.612729,0.054988 0.612729,0.4399079 v 4.08485886 c 0,0.35349741 -0.08641,0.35349741 -0.612729,0.35349741 V 0 l 0.87196,-0.02356649 z"
           inkscape:connector-curvature="0" /><path
           id="path944"
           d="M 30.856396,-0.69913931 V -1.1390472 h -0.196387 v 0.43990789 c 0,0.45561888 -0.196387,0.50275186 -0.282798,0.50275186 -0.259231,0 -0.290653,-0.3534974 -0.290653,-0.39277489 V -2.1602619 c 0,-0.3299309 0,-0.6362953 -0.282798,-0.9269487 -0.306365,-0.3063645 -0.69914,-0.4320524 -1.076203,-0.4320524 -0.644151,0 -1.186181,0.3692084 -1.186181,0.8876712 0,0.235665 0.15711,0.3692084 0.361353,0.3692084 0.219954,0 0.361353,-0.1571099 0.361353,-0.3613529 0,-0.094266 -0.03928,-0.3534974 -0.40063,-0.3613529 0.212098,-0.2749424 0.597018,-0.3613529 0.848394,-0.3613529 0.384919,0 0.832682,0.3063644 0.832682,1.0055037 v 0.2906535 c -0.40063,0.023566 -0.950515,0.047133 -1.445411,0.2827979 -0.589163,0.2670869 -0.78555,0.6755728 -0.78555,1.02121471 0,0.63629532 0.761983,0.83268277 1.25688,0.83268277 0.518462,0 0.879815,-0.31421992 1.02907,-0.68342832 0.03142,0.31421992 0.24352,0.64415083 0.612729,0.64415083 0.164965,0 0.64415,-0.10997697 0.64415,-0.7462723 z M 29.544528,-1.0997697 c 0,0.7462723 -0.565596,1.01335922 -0.919093,1.01335922 -0.384919,0 -0.706995,-0.27494242 -0.706995,-0.66771731 0,-0.43205241 0.329931,-1.08405871 1.626088,-1.13119171 z"
           inkscape:connector-curvature="0" /><path
           id="path946"
           d="m 34.768434,-3.1421991 v -0.2435205 c -0.180676,0.015711 -0.408485,0.023566 -0.589162,0.023566 l -0.683428,-0.023566 v 0.2435205 c 0.24352,0.00786 0.369208,0.1413989 0.369208,0.3377864 0,0.078555 -0.0079,0.094266 -0.04713,0.1885319 l -0.793405,1.93245249 -0.87196,-2.11312889 c -0.03142,-0.078555 -0.04713,-0.109977 -0.04713,-0.141399 0,-0.2042429 0.290653,-0.2042429 0.439908,-0.2042429 v -0.2435205 l -0.85625,0.023566 c -0.212098,0 -0.526318,-0.00786 -0.761983,-0.023566 v 0.2435205 c 0.377064,0 0.526318,0 0.636295,0.2749424 L 32.741716,0 32.545329,0.46347437 c -0.172821,0.43205238 -0.392775,0.97408173 -0.895527,0.97408173 -0.03928,0 -0.219954,0 -0.369209,-0.141399 0.243521,-0.031422 0.306365,-0.2042429 0.306365,-0.32993087 0,-0.20424294 -0.149255,-0.32993091 -0.329931,-0.32993091 -0.15711,0 -0.329931,0.10212148 -0.329931,0.33778641 0,0.35349737 0.329931,0.63629537 0.722706,0.63629537 0.494896,0 0.816972,-0.4477634 1.005504,-0.8955268 l 1.382567,-3.3542976 c 0.204243,-0.4948963 0.604874,-0.5027518 0.730561,-0.5027518 z"
           inkscape:connector-curvature="0" /><path
           id="path948"
           d="m 37.965621,-0.93480424 c 0,-0.078555 -0.06284,-0.094266 -0.102122,-0.094266 -0.0707,0 -0.08641,0.047133 -0.102121,0.10997679 -0.274942,0.80911628 -0.981937,0.80911628 -1.060492,0.80911628 -0.392775,0 -0.706995,-0.23566493 -0.887672,-0.52631835 C 35.57755,-1.0133592 35.57755,-1.5318221 35.57755,-1.81462 h 2.191683 c 0.172821,0 0.196388,0 0.196388,-0.1649655 0,-0.7776942 -0.424197,-1.5396775 -1.406134,-1.5396775 -0.911238,0 -1.633944,0.8091162 -1.633944,1.7910535 0,1.05263669 0.824828,1.81461998 1.72821,1.81461998 0.95837,0 1.311868,-0.87196026 1.311868,-1.02121472 z M 37.447158,-1.9795855 h -1.861753 c 0.04713,-1.1704691 0.706995,-1.3668566 0.974082,-1.3668566 0.809116,0 0.887671,1.0604922 0.887671,1.3668566 z"
           inkscape:connector-curvature="0" /><path
           id="path950"
           d="m 41.052833,-2.9929447 c 0,-0.2513759 -0.24352,-0.4791853 -0.581307,-0.4791853 -0.573451,0 -0.856249,0.5263183 -0.966226,0.8641047 V -3.47213 l -1.091914,0.08641 v 0.2435205 c 0.549885,0 0.612729,0.054988 0.612729,0.4399078 v 2.10527346 c 0,0.35349741 -0.08641,0.35349741 -0.612729,0.35349741 V 0 l 0.895527,-0.02356649 c 0.314219,0 0.683428,0 0.997648,0.02356649 v -0.24352043 h -0.164966 c -0.581307,0 -0.597018,-0.0864105 -0.597018,-0.3692084 V -1.8224755 c 0,-0.7776943 0.329931,-1.4768336 0.926949,-1.4768336 0.05499,0 0.0707,0 0.08641,0.00786 -0.02357,0.00786 -0.180677,0.1021215 -0.180677,0.3063644 0,0.219954 0.164966,0.3377864 0.337787,0.3377864 0.141399,0 0.337786,-0.094266 0.337786,-0.3456419 z"
           inkscape:connector-curvature="0" /><path
           id="path952"
           d="m 5.522415,-27.652665 v -0.24352 c -0.172821,0.01571 -0.4006304,0.02357 -0.5734514,0.02357 l -0.7305613,-0.02357 v 0.24352 c 0.282798,0.0079 0.4556189,0.149255 0.4556189,0.377064 0,0.04713 0,0.06284 -0.039278,0.164966 l -0.7148503,2.011007 -0.7776943,-2.191684 c -0.031422,-0.09427 -0.039277,-0.109977 -0.039277,-0.149254 0,-0.212099 0.3063645,-0.212099 0.4634744,-0.212099 v -0.24352 l -0.8169718,0.02357 c -0.2356649,0 -0.4634743,-0.0079 -0.6991393,-0.02357 v 0.24352 c 0.2906535,0 0.4163414,0.01571 0.4948964,0.117833 0.039278,0.04713 0.125688,0.282798 0.1806764,0.432052 l -0.6755728,1.901031 -0.7462723,-2.097418 c -0.039277,-0.09427 -0.039277,-0.109977 -0.039277,-0.141399 0,-0.212099 0.3063644,-0.212099 0.4634743,-0.212099 v -0.24352 l -0.85624924,0.02357 -0.7305613,-0.02357 v 0.24352 c 0.39277489,0 0.48704087,0.02357 0.58130684,0.274943 l 0.9897927,2.780846 c 0.039278,0.109977 0.062844,0.172821 0.1649655,0.172821 0.1021215,0 0.1178325,-0.04713 0.1571099,-0.15711 l 0.7934053,-2.223106 0.8012608,2.230961 c 0.031422,0.08641 0.054989,0.149255 0.15711,0.149255 0.1021214,0 0.1256879,-0.0707 0.1571099,-0.149255 l 0.9190933,-2.576603 c 0.1413989,-0.392775 0.3849194,-0.494896 0.6598614,-0.502752 z"
           inkscape:connector-curvature="0" /><path
           id="path954"
           d="m 8.7196025,-25.44527 c 0,-0.07855 -0.062844,-0.09427 -0.1021215,-0.09427 -0.070699,0 -0.08641,0.04713 -0.1021215,0.109977 -0.2749424,0.809116 -0.9819372,0.809116 -1.0604922,0.809116 -0.3927749,0 -0.7069948,-0.235665 -0.8876712,-0.526318 -0.235665,-0.377064 -0.235665,-0.895527 -0.235665,-1.178325 H 8.523215 c 0.172821,0 0.1963875,0 0.1963875,-0.164965 0,-0.777694 -0.4241969,-1.539678 -1.4061341,-1.539678 -0.9112378,0 -1.6339436,0.809117 -1.6339436,1.791054 0,1.052637 0.8248273,1.81462 1.7282095,1.81462 0.9583708,0 1.3118682,-0.87196 1.3118682,-1.021215 z m -0.5184629,-1.044781 h -1.861753 c 0.047133,-1.170469 0.7069948,-1.366857 0.9740818,-1.366857 0.8091163,0 0.8876712,1.060493 0.8876712,1.366857 z"
           inkscape:connector-curvature="0" /><path
           id="path956"
           d="m 10.88772,-24.510466 v -0.24352 c -0.518462,0 -0.549884,-0.03928 -0.549884,-0.345642 v -2.882968 l -1.0997701,0.08641 v 0.24352 c 0.5106074,0 0.5813069,0.04713 0.5813069,0.432053 v 2.113129 c 0,0.353497 -0.08641,0.353497 -0.6127289,0.353497 v 0.24352 l 0.8641051,-0.02357 c 0.274942,0 0.549885,0.01571 0.816971,0.02357 z m -0.432052,-4.74472 c 0,-0.212099 -0.180676,-0.416342 -0.416341,-0.416342 -0.2670872,0 -0.4241972,0.219954 -0.4241972,0.416342 0,0.212098 0.1806765,0.416341 0.4163412,0.416341 0.267087,0 0.424197,-0.219954 0.424197,-0.416341 z"
           inkscape:connector-curvature="0" /><path
           id="path958"
           d="m 14.941157,-27.684087 c 0,-0.133543 -0.09427,-0.384919 -0.40063,-0.384919 -0.15711,0 -0.502752,0.04713 -0.832683,0.369208 -0.329931,-0.259231 -0.659862,-0.282798 -0.832683,-0.282798 -0.730561,0 -1.27259,0.54203 -1.27259,1.146903 0,0.345642 0.172821,0.644151 0.369208,0.809116 -0.102121,0.117833 -0.24352,0.377064 -0.24352,0.652007 0,0.24352 0.102121,0.542029 0.345642,0.699139 -0.47133,0.133543 -0.722706,0.47133 -0.722706,0.78555 0,0.565596 0.777694,0.997648 1.736065,0.997648 0.926949,0 1.74392,-0.40063 1.74392,-1.013359 0,-0.274943 -0.109977,-0.675573 -0.510607,-0.895527 -0.416341,-0.219954 -0.87196,-0.219954 -1.351146,-0.219954 -0.196387,0 -0.534174,0 -0.589162,-0.0079 -0.251376,-0.03142 -0.416341,-0.274943 -0.416341,-0.526319 0,-0.03142 0,-0.212098 0.133543,-0.369208 0.306364,0.219954 0.62844,0.24352 0.777694,0.24352 0.730562,0 1.272591,-0.542029 1.272591,-1.146902 0,-0.290654 -0.125688,-0.581307 -0.322075,-0.761984 0.282798,-0.267087 0.565595,-0.306364 0.706994,-0.306364 0,0 0.05499,0 0.07855,0.0079 -0.08641,0.03142 -0.125688,0.117833 -0.125688,0.212099 0,0.133543 0.102122,0.227809 0.22781,0.227809 0.07855,0 0.227809,-0.05499 0.227809,-0.235665 z m -1.382567,0.848394 c 0,0.212098 -0.0079,0.463474 -0.125688,0.659862 -0.06284,0.09427 -0.243521,0.31422 -0.557741,0.31422 -0.683428,0 -0.683428,-0.78555 -0.683428,-0.966226 0,-0.212099 0.0079,-0.463475 0.125688,-0.659862 0.06284,-0.09427 0.24352,-0.31422 0.55774,-0.31422 0.683429,0 0.683429,0.78555 0.683429,0.966226 z m 0.864104,2.945812 c 0,0.424197 -0.55774,0.816971 -1.327579,0.816971 -0.793405,0 -1.335434,-0.40063 -1.335434,-0.816971 0,-0.361353 0.298509,-0.652007 0.64415,-0.675573 h 0.463475 c 0.675573,0 1.555388,0 1.555388,0.675573 z"
           inkscape:connector-curvature="0" /><path
           id="path960"
           d="m 19.261681,-24.510466 v -0.24352 c -0.408486,0 -0.604873,0 -0.612729,-0.235665 v -1.5004 c 0,-0.675573 0,-0.919093 -0.24352,-1.201891 -0.109977,-0.133544 -0.369209,-0.290654 -0.824828,-0.290654 -0.659861,0 -1.005503,0.47133 -1.131191,0.754128 h -0.0079 v -2.733713 l -1.131192,0.08641 v 0.243521 c 0.549885,0 0.612729,0.05499 0.612729,0.439908 v 4.084859 c 0,0.353497 -0.08641,0.353497 -0.612729,0.353497 v 0.24352 l 0.887672,-0.02357 0.879815,0.02357 v -0.24352 c -0.526318,0 -0.612728,0 -0.612728,-0.353497 v -1.445412 c 0,-0.816972 0.55774,-1.25688 1.060492,-1.25688 0.494896,0 0.581307,0.424197 0.581307,0.871961 v 1.830331 c 0,0.353497 -0.08641,0.353497 -0.612729,0.353497 v 0.24352 l 0.887671,-0.02357 z"
           inkscape:connector-curvature="0" /><path
           id="path962"
           d="m 21.814717,-25.484547 v -0.447764 H 21.61833 v 0.432053 c 0,0.581306 -0.235665,0.879815 -0.526319,0.879815 -0.526318,0 -0.526318,-0.71485 -0.526318,-0.848393 v -2.183829 h 1.123336 v -0.24352 h -1.123336 v -1.445412 h -0.196388 c -0.0079,0.644151 -0.24352,1.484689 -1.013359,1.516111 v 0.172821 h 0.667718 v 2.168118 c 0,0.966226 0.730561,1.060492 1.013359,1.060492 0.55774,0 0.777694,-0.55774 0.777694,-1.060492 z"
           inkscape:connector-curvature="0" /><path
           id="path964"
           d="m 26.881515,-24.510466 v -0.24352 c -0.526319,0 -0.612729,0 -0.612729,-0.353497 v -4.854698 l -1.131192,0.08641 v 0.243521 c 0.549885,0 0.612729,0.05499 0.612729,0.439908 v 4.084859 c 0,0.353497 -0.08641,0.353497 -0.612729,0.353497 v 0.24352 l 0.87196,-0.02357 z"
           inkscape:connector-curvature="0" /><path
           id="path966"
           d="m 30.856396,-25.209605 v -0.439908 h -0.196387 v 0.439908 c 0,0.455619 -0.196387,0.502752 -0.282798,0.502752 -0.259231,0 -0.290653,-0.353497 -0.290653,-0.392775 v -1.5711 c 0,-0.32993 0,-0.636295 -0.282798,-0.926948 -0.306365,-0.306365 -0.69914,-0.432053 -1.076203,-0.432053 -0.644151,0 -1.186181,0.369209 -1.186181,0.887672 0,0.235665 0.15711,0.369208 0.361353,0.369208 0.219954,0 0.361353,-0.15711 0.361353,-0.361353 0,-0.09427 -0.03928,-0.353497 -0.40063,-0.361353 0.212098,-0.274942 0.597018,-0.361353 0.848394,-0.361353 0.384919,0 0.832682,0.306365 0.832682,1.005504 v 0.290653 c -0.40063,0.02357 -0.950515,0.04713 -1.445411,0.282798 -0.589163,0.267087 -0.78555,0.675573 -0.78555,1.021215 0,0.636295 0.761983,0.832683 1.25688,0.832683 0.518462,0 0.879815,-0.31422 1.02907,-0.683428 0.03142,0.314219 0.24352,0.64415 0.612729,0.64415 0.164965,0 0.64415,-0.109977 0.64415,-0.746272 z m -1.311868,-0.40063 c 0,0.746272 -0.565596,1.013359 -0.919093,1.013359 -0.384919,0 -0.706995,-0.274943 -0.706995,-0.667717 0,-0.432053 0.329931,-1.084059 1.626088,-1.131192 z"
           inkscape:connector-curvature="0" /><path
           id="path968"
           d="m 34.768434,-27.652665 v -0.24352 c -0.180676,0.01571 -0.408485,0.02357 -0.589162,0.02357 l -0.683428,-0.02357 v 0.24352 c 0.24352,0.0079 0.369208,0.141399 0.369208,0.337787 0,0.07856 -0.0079,0.09427 -0.04713,0.188532 l -0.793405,1.932452 -0.87196,-2.113129 c -0.03142,-0.07855 -0.04713,-0.109977 -0.04713,-0.141399 0,-0.204243 0.290653,-0.204243 0.439908,-0.204243 v -0.24352 l -0.85625,0.02357 c -0.212098,0 -0.526318,-0.0079 -0.761983,-0.02357 v 0.24352 c 0.377064,0 0.526318,0 0.636295,0.274943 l 1.178325,2.867256 -0.196387,0.463475 c -0.172821,0.432052 -0.392775,0.974081 -0.895527,0.974081 -0.03928,0 -0.219954,0 -0.369209,-0.141398 0.243521,-0.03142 0.306365,-0.204243 0.306365,-0.329931 0,-0.204243 -0.149255,-0.329931 -0.329931,-0.329931 -0.15711,0 -0.329931,0.102121 -0.329931,0.337786 0,0.353498 0.329931,0.636295 0.722706,0.636295 0.494896,0 0.816972,-0.447763 1.005504,-0.895526 l 1.382567,-3.354298 c 0.204243,-0.494896 0.604874,-0.502752 0.730561,-0.502752 z"
           inkscape:connector-curvature="0" /><path
           id="path970"
           d="m 37.965621,-25.44527 c 0,-0.07855 -0.06284,-0.09427 -0.102122,-0.09427 -0.0707,0 -0.08641,0.04713 -0.102121,0.109977 -0.274942,0.809116 -0.981937,0.809116 -1.060492,0.809116 -0.392775,0 -0.706995,-0.235665 -0.887672,-0.526318 -0.235664,-0.377064 -0.235664,-0.895527 -0.235664,-1.178325 h 2.191683 c 0.172821,0 0.196388,0 0.196388,-0.164965 0,-0.777694 -0.424197,-1.539678 -1.406134,-1.539678 -0.911238,0 -1.633944,0.809117 -1.633944,1.791054 0,1.052637 0.824828,1.81462 1.72821,1.81462 0.95837,0 1.311868,-0.87196 1.311868,-1.021215 z m -0.518463,-1.044781 h -1.861753 c 0.04713,-1.170469 0.706995,-1.366857 0.974082,-1.366857 0.809116,0 0.887671,1.060493 0.887671,1.366857 z"
           inkscape:connector-curvature="0" /><path
           id="path972"
           d="m 41.052833,-27.50341 c 0,-0.251376 -0.24352,-0.479186 -0.581307,-0.479186 -0.573451,0 -0.856249,0.526319 -0.966226,0.864105 v -0.864105 l -1.091914,0.08641 v 0.24352 c 0.549885,0 0.612729,0.05499 0.612729,0.439908 v 2.105274 c 0,0.353497 -0.08641,0.353497 -0.612729,0.353497 v 0.24352 l 0.895527,-0.02357 c 0.314219,0 0.683428,0 0.997648,0.02357 v -0.24352 h -0.164966 c -0.581307,0 -0.597018,-0.08641 -0.597018,-0.369208 v -1.209747 c 0,-0.777694 0.329931,-1.476834 0.926949,-1.476834 0.05499,0 0.0707,0 0.08641,0.0079 -0.02357,0.0079 -0.180677,0.102121 -0.180677,0.306364 0,0.219954 0.164966,0.337787 0.337787,0.337787 0.141399,0 0.337786,-0.09427 0.337786,-0.345642 z"
           inkscape:connector-curvature="0" /><path
           id="path974"
           d="M 71.079415,0.62167627 V 0.37815583 c -0.518463,0 -0.549885,-0.0392775 -0.549885,-0.3456419 V -2.8504538 l -1.09977,0.08641 v 0.2435204 c 0.510608,0 0.581307,0.047133 0.581307,0.4320524 v 2.11312893 c 0,0.3534974 -0.08641,0.3534974 -0.612729,0.3534974 v 0.24352044 l 0.864105,-0.0235665 c 0.274942,0 0.549885,0.015711 0.816972,0.023567 z M 70.647362,-4.1230444 c 0,-0.2120985 -0.180676,-0.4163414 -0.416341,-0.4163414 -0.267087,0 -0.424197,0.2199539 -0.424197,0.4163414 0,0.2120984 0.180677,0.4163414 0.416341,0.4163414 0.267087,0 0.424197,-0.219954 0.424197,-0.4163414 z"
           inkscape:connector-curvature="0" /><path
           id="path976"
           d="M 75.462784,0.62167627 V 0.37815583 c -0.549884,0 -0.612728,-0.0549885 -0.612728,-0.43990788 V -4.8300392 l -1.131192,0.08641 v 0.2435205 c 0.549885,0 0.612729,0.054989 0.612729,0.4399079 v 1.6967875 c -0.22781,-0.2827979 -0.565596,-0.4870409 -0.989793,-0.4870409 -0.926949,0 -1.751776,0.7698388 -1.751776,1.783198 0,0.99764826 0.769839,1.77534254 1.665365,1.77534254 0.502752,0 0.85625,-0.26708692 1.052637,-0.51846285 v 0.51846285 z m -1.154758,-0.92694875 c 0,0.14139896 0,0.15710996 -0.08641,0.29065342 -0.235665,0.3770639 -0.589163,0.54988485 -0.926949,0.54988485 -0.353497,0 -0.636295,-0.20424294 -0.824827,-0.50275186 -0.204243,-0.32207541 -0.22781,-0.76983879 -0.22781,-1.09191423 0,-0.2906534 0.01571,-0.7619833 0.243521,-1.1154807 0.164965,-0.2435204 0.463474,-0.5027518 0.887671,-0.5027518 0.274942,0 0.604873,0.1178324 0.848394,0.4713298 0.08641,0.1335435 0.08641,0.1492545 0.08641,0.2906535 z"
           inkscape:connector-curvature="0" /><path
           id="path978"
           d="m 78.950622,-0.31312798 c 0,-0.078555 -0.06284,-0.094266 -0.102122,-0.094266 -0.0707,0 -0.08641,0.047133 -0.102121,0.10997697 -0.274943,0.80911628 -0.981938,0.80911628 -1.060493,0.80911628 -0.392775,0 -0.706994,-0.23566494 -0.887671,-0.52631836 C 76.56255,-0.39168295 76.56255,-0.91014581 76.56255,-1.1929437 h 2.191684 c 0.172821,0 0.196388,0 0.196388,-0.1649655 0,-0.7776943 -0.424197,-1.5396776 -1.406135,-1.5396776 -0.911237,0 -1.633943,0.8091163 -1.633943,1.7910535 0,1.05263675 0.824827,1.81462004 1.728209,1.81462004 0.958371,0 1.311869,-0.87196026 1.311869,-1.02121472 z M 78.432159,-1.3579092 h -1.861753 c 0.04713,-1.1704692 0.706994,-1.3668566 0.974081,-1.3668566 0.809117,0 0.887672,1.0604922 0.887672,1.3668566 z"
           inkscape:connector-curvature="0" /><path
           id="path980"
           d="M 83.38112,0.62167627 V 0.37815583 c -0.408486,0 -0.604873,0 -0.612729,-0.23566493 v -1.5004001 c 0,-0.6755728 0,-0.9190932 -0.24352,-1.2018912 -0.109977,-0.1335434 -0.369209,-0.2906534 -0.824828,-0.2906534 -0.573451,0 -0.942659,0.3377864 -1.162613,0.8248273 v -0.8248273 l -1.107625,0.08641 v 0.2435204 c 0.549884,0 0.612728,0.054988 0.612728,0.4399079 v 2.10527343 c 0,0.3534974 -0.08641,0.3534974 -0.612728,0.3534974 v 0.24352044 l 0.887671,-0.0235665 0.879816,0.0235665 V 0.37815583 c -0.526319,0 -0.612729,0 -0.612729,-0.3534974 V -1.4207532 c 0,-0.8169717 0.55774,-1.2568796 1.060492,-1.2568796 0.494896,0 0.581307,0.4241969 0.581307,0.8719602 v 1.83033103 c 0,0.3534974 -0.08641,0.3534974 -0.612729,0.3534974 v 0.24352044 l 0.887671,-0.0235665 z"
           inkscape:connector-curvature="0" /><path
           id="path982"
           d="M 85.942017,-0.35240547 V -0.80016884 H 85.74563 v 0.43205238 c 0,0.58130684 -0.235665,0.87981576 -0.526319,0.87981576 -0.526318,0 -0.526318,-0.71485031 -0.526318,-0.84839377 V -2.5205229 h 1.123336 v -0.2435204 h -1.123336 v -1.4454116 h -0.196387 c -0.0079,0.6441508 -0.243521,1.4846891 -1.01336,1.5161111 v 0.1728209 h 0.667718 v 2.16811743 c 0,0.96622624 0.730561,1.06049221 1.013359,1.06049221 0.55774,0 0.777694,-0.55774034 0.777694,-1.06049221 z"
           inkscape:connector-curvature="0" /><path
           id="path984"
           d="M 88.330086,0.62167627 V 0.37815583 c -0.518463,0 -0.549885,-0.0392775 -0.549885,-0.3456419 V -2.8504538 l -1.099769,0.08641 v 0.2435204 c 0.510607,0 0.581306,0.047133 0.581306,0.4320524 v 2.11312893 c 0,0.3534974 -0.08641,0.3534974 -0.612728,0.3534974 v 0.24352044 l 0.864104,-0.0235665 c 0.274943,0 0.549885,0.015711 0.816972,0.023567 z M 87.898034,-4.1230444 c 0,-0.2120985 -0.180677,-0.4163414 -0.416342,-0.4163414 -0.267087,0 -0.424197,0.2199539 -0.424197,0.4163414 0,0.2120984 0.180677,0.4163414 0.416342,0.4163414 0.267087,0 0.424197,-0.219954 0.424197,-0.4163414 z"
           inkscape:connector-curvature="0" /><path
           id="path986"
           d="m 91.181634,-0.35240547 v -0.44776337 h -0.196388 v 0.43205238 c 0,0.58130684 -0.235665,0.87981576 -0.526318,0.87981576 -0.526318,0 -0.526318,-0.71485031 -0.526318,-0.84839377 V -2.5205229 h 1.123336 V -2.7640433 H 89.93261 v -1.4454116 h -0.196388 c -0.0079,0.6441508 -0.24352,1.4846891 -1.013359,1.5161111 v 0.1728209 h 0.667717 v 2.16811743 c 0,0.96622624 0.730561,1.06049221 1.013359,1.06049221 0.557741,0 0.777695,-0.55774034 0.777695,-1.06049221 z"
           inkscape:connector-curvature="0" /><path
           id="path988"
           d="m 95.392181,-2.5205229 v -0.2435204 c -0.180676,0.015711 -0.408486,0.023566 -0.589162,0.023566 l -0.683428,-0.023566 v 0.2435204 c 0.24352,0.00786 0.369208,0.141399 0.369208,0.3377864 0,0.078555 -0.0079,0.094266 -0.04713,0.188532 l -0.793405,1.93245245 -0.87196,-2.11312895 c -0.03142,-0.078555 -0.04713,-0.1099769 -0.04713,-0.1413989 0,-0.204243 0.290653,-0.204243 0.439907,-0.204243 v -0.2435204 l -0.856249,0.023566 c -0.212098,0 -0.526318,-0.00786 -0.761983,-0.023566 v 0.2435204 c 0.377064,0 0.526318,0 0.636295,0.2749425 l 1.178325,2.86725667 -0.196388,0.46347433 c -0.17282,0.4320524 -0.392774,0.9740818 -0.895526,0.9740818 -0.03928,0 -0.219954,0 -0.369209,-0.141399 0.243521,-0.031422 0.306365,-0.2042429 0.306365,-0.3299309 0,-0.2042429 -0.149255,-0.3299309 -0.329931,-0.3299309 -0.15711,0 -0.329931,0.1021215 -0.329931,0.3377864 0,0.3534974 0.329931,0.6362953 0.722706,0.6362953 0.494896,0 0.816971,-0.4477634 1.005503,-0.8955267 L 94.66162,-2.017771 c 0.204243,-0.4948964 0.604873,-0.5027519 0.730561,-0.5027519 z"
           inkscape:connector-curvature="0" /></g><g
         id="text82"
         style="font-variant:normal;font-weight:normal;font-size:7.85549784px;font-family:'LM Roman 10';-inkscape-font-specification:LMRoman10-Regular;writing-mode:lr-tb;fill:#000000;fill-opacity:1;fill-rule:nonzero;stroke:none"
         transform="matrix(0.99954223,0,0,1,63.91324,76.230266)"
         aria-label="ReLU ReLU"><path
           id="path913"
           d="m 5.7502244,-0.69128381 c 0,-0.047133 0,-0.13354346 -0.1021215,-0.13354346 -0.08641,0 -0.08641,0.0706995 -0.094266,0.12568796 C 5.506704,-0.14139896 5.2317616,0 5.0353741,0 4.6504547,0 4.5876107,-0.40063039 4.4776338,-1.1311917 L 4.3755123,-1.7596315 c -0.141399,-0.5027519 -0.5263184,-0.7619833 -0.9583707,-0.9112378 0.7619832,-0.1885319 1.3747121,-0.6677173 1.3747121,-1.2804461 0,-0.7541278 -0.8955268,-1.4139896 -2.050285,-1.4139896 H 0.27494242 v 0.2435204 h 0.18853195 c 0.60487333,0 0.62058433,0.08641 0.62058433,0.3692084 v 4.13984737 c 0,0.28279792 -0.015711,0.3692084 -0.62058433,0.3692084 H 0.27494242 V 0 c 0.28279793,-0.02356649 0.84053828,-0.02356649 1.14690268,-0.02356649 0.3063644,0 0.8641048,0 1.1469027,0.02356649 v -0.24352043 h -0.188532 c -0.6048733,0 -0.6205843,-0.0864105 -0.6205843,-0.3692084 V -2.6001698 h 0.9033823 c 0.1256879,0 0.4556188,0 0.7305613,0.2670869 0.2985089,0.282798 0.2985089,0.5263184 0.2985089,1.0526368 0,0.51060731 0,0.82482723 0.3220754,1.12333614 0.3220754,0.28279793 0.7541278,0.32993091 0.9897927,0.32993091 0.6127289,0 0.7462723,-0.64415082 0.7462723,-0.86410476 z M 3.9827374,-3.9513154 c 0,0.5420293 -0.1885319,1.1783247 -1.3511456,1.1783247 H 1.7596315 v -2.034574 c 0,-0.1806764 0,-0.2749424 0.172821,-0.2985089 0.078555,-0.015711 0.3063644,-0.015711 0.4634743,-0.015711 0.7069948,0 1.5868106,0.031422 1.5868106,1.1704692 z"
           inkscape:connector-curvature="0" /><path
           id="path915"
           d="m 9.0416783,-0.93480424 c 0,-0.078555 -0.062844,-0.094266 -0.1021214,-0.094266 -0.070699,0 -0.08641,0.047133 -0.1021215,0.10997679 -0.2749424,0.80911628 -0.9819372,0.80911628 -1.0604922,0.80911628 -0.3927749,0 -0.7069948,-0.23566493 -0.8876713,-0.52631835 C 6.653607,-1.0133592 6.653607,-1.5318221 6.653607,-1.81462 h 2.1916839 c 0.1728209,0 0.1963874,0 0.1963874,-0.1649655 0,-0.7776942 -0.4241969,-1.5396775 -1.4061341,-1.5396775 -0.9112377,0 -1.6339435,0.8091162 -1.6339435,1.7910535 0,1.05263669 0.8248272,1.81461998 1.7282095,1.81461998 0.9583707,0 1.3118681,-0.87196026 1.3118681,-1.02121472 z M 8.5232155,-1.9795855 h -1.861753 c 0.047133,-1.1704691 0.7069948,-1.3668566 0.9740817,-1.3668566 0.8091163,0 0.8876713,1.0604922 0.8876713,1.3668566 z"
           inkscape:connector-curvature="0" /><path
           id="path917"
           d="M 13.841387,-2.0267184 H 13.645 c -0.08641,0.8012607 -0.196388,1.78319797 -1.578955,1.78319797 h -0.644151 c -0.369209,0 -0.38492,-0.0549885 -0.38492,-0.31421992 V -4.7447207 c 0,-0.2670869 0,-0.3770639 0.746273,-0.3770639 h 0.259231 V -5.365305 c -0.282798,0.023567 -0.997648,0.023567 -1.319724,0.023567 -0.306364,0 -0.9190928,0 -1.1940352,-0.023567 v 0.2435204 h 0.188532 c 0.6048732,0 0.6205842,0.08641 0.6205842,0.3692084 v 4.13984737 c 0,0.28279792 -0.01571,0.3692084 -0.6205842,0.3692084 H 9.5287188 V 0 h 4.0927142 z"
           inkscape:connector-curvature="0" /><path
           id="path919"
           d="M 19.80371,-5.1217846 V -5.365305 l -0.926949,0.023567 -0.934804,-0.023567 v 0.2435204 c 0.809116,0 0.809116,0.3692084 0.809116,0.5813069 V -1.81462 c 0,1.11548069 -0.761983,1.74392052 -1.508255,1.74392052 -0.369209,0 -1.296158,-0.19638745 -1.296158,-1.68893202 v -2.9929447 c 0,-0.2827979 0.01571,-0.3692084 0.620585,-0.3692084 h 0.188532 V -5.365305 c -0.274943,0.023567 -0.85625,0.023567 -1.154758,0.023567 -0.298509,0 -0.887672,0 -1.162614,-0.023567 v 0.2435204 h 0.188532 c 0.604873,0 0.620584,0.08641 0.620584,0.3692084 v 2.9615227 c 0,1.10762519 0.911238,1.96387445 1.979586,1.96387445 0.903382,0 1.610377,-0.7305613 1.74392,-1.62608805 0.02357,-0.15711 0.02357,-0.2278094 0.02357,-0.5420294 v -2.5137593 c 0,-0.2592314 0,-0.6127288 0.809116,-0.6127288 z"
           inkscape:connector-curvature="0" /><path
           id="path921"
           d="m 4.9922647,-38.382606 c 0,-0.04713 0,-0.133544 -0.1021215,-0.133544 -0.08641,0 -0.08641,0.0707 -0.094266,0.125688 -0.047133,0.557741 -0.3220754,0.69914 -0.5184628,0.69914 -0.3849194,0 -0.4477634,-0.400631 -0.5577404,-1.131192 l -0.1021214,-0.62844 c -0.141399,-0.502752 -0.5263184,-0.761983 -0.9583708,-0.911238 0.7619833,-0.188532 1.3747122,-0.667717 1.3747122,-1.280446 0,-0.754128 -0.8955268,-1.413989 -2.050285,-1.413989 h -2.4666263 v 0.24352 h 0.18853195 c 0.60487333,0 0.62058433,0.08641 0.62058433,0.369208 v 4.139848 c 0,0.282798 -0.015711,0.369208 -0.62058433,0.369208 H -0.4830173 v 0.243521 c 0.28279792,-0.02357 0.84053827,-0.02357 1.14690269,-0.02357 0.30636441,0 0.86410471,0 1.14690271,0.02357 v -0.243521 h -0.188532 c -0.6048733,0 -0.6205843,-0.08641 -0.6205843,-0.369208 v -1.987441 H 1.905054 c 0.125688,0 0.4556189,0 0.7305613,0.267087 0.298509,0.282798 0.298509,0.526318 0.298509,1.052637 0,0.510607 0,0.824827 0.3220754,1.123336 0.3220754,0.282798 0.7541278,0.329931 0.9897927,0.329931 0.6127288,0 0.7462723,-0.644151 0.7462723,-0.864105 z m -1.767487,-3.260032 c 0,0.54203 -0.188532,1.178325 -1.3511456,1.178325 H 1.0016718 v -2.034574 c 0,-0.180676 0,-0.274942 0.1728209,-0.298509 0.078555,-0.01571 0.3063645,-0.01571 0.4634744,-0.01571 0.7069948,0 1.5868106,0.03142 1.5868106,1.170468 z"
           inkscape:connector-curvature="0" /><path
           id="path923"
           d="m 8.2837185,-38.626127 c 0,-0.07856 -0.062844,-0.09427 -0.1021215,-0.09427 -0.070699,0 -0.08641,0.04713 -0.1021215,0.109977 -0.2749424,0.809117 -0.9819372,0.809117 -1.0604922,0.809117 -0.3927749,0 -0.7069948,-0.235665 -0.8876712,-0.526319 -0.235665,-0.377064 -0.235665,-0.895526 -0.235665,-1.178324 H 8.087331 c 0.172821,0 0.1963875,0 0.1963875,-0.164966 0,-0.777694 -0.4241969,-1.539677 -1.4061341,-1.539677 -0.9112378,0 -1.6339436,0.809116 -1.6339436,1.791053 0,1.052637 0.8248273,1.81462 1.7282095,1.81462 0.9583708,0 1.3118682,-0.87196 1.3118682,-1.021215 z m -0.5184629,-1.044781 h -1.861753 c 0.047133,-1.170469 0.7069948,-1.366856 0.9740818,-1.366856 0.8091163,0 0.8876712,1.060492 0.8876712,1.366856 z"
           inkscape:connector-curvature="0" /><path
           id="path925"
           d="M 13.083428,-39.718041 H 12.88704 c -0.08641,0.801261 -0.196387,1.783198 -1.578955,1.783198 h -0.644151 c -0.369208,0 -0.384919,-0.05499 -0.384919,-0.31422 v -4.18698 c 0,-0.267087 0,-0.377064 0.746272,-0.377064 h 0.259232 v -0.24352 c -0.282798,0.02357 -0.997648,0.02357 -1.3197239,0.02357 -0.3063644,0 -0.9190932,0 -1.1940357,-0.02357 v 0.24352 h 0.188532 c 0.6048733,0 0.6205843,0.08641 0.6205843,0.369208 v 4.139848 c 0,0.282798 -0.015711,0.369208 -0.6205843,0.369208 h -0.188532 v 0.243521 h 4.0927146 z"
           inkscape:connector-curvature="0" /><path
           id="path927"
           d="m 19.045751,-42.813107 v -0.24352 l -0.926949,0.02357 -0.934804,-0.02357 v 0.24352 c 0.809116,0 0.809116,0.369208 0.809116,0.581307 v 2.725858 c 0,1.11548 -0.761983,1.74392 -1.508256,1.74392 -0.369208,0 -1.296157,-0.196387 -1.296157,-1.688932 v -2.992945 c 0,-0.282797 0.01571,-0.369208 0.620584,-0.369208 h 0.188532 v -0.24352 c -0.274942,0.02357 -0.856249,0.02357 -1.154758,0.02357 -0.298509,0 -0.887671,0 -1.162613,-0.02357 v 0.24352 h 0.188531 c 0.604874,0 0.620585,0.08641 0.620585,0.369208 v 2.961523 c 0,1.107625 0.911238,1.963875 1.979585,1.963875 0.903383,0 1.610377,-0.730562 1.743921,-1.626088 0.02357,-0.15711 0.02357,-0.22781 0.02357,-0.54203 v -2.513759 c 0,-0.259232 0,-0.612729 0.809117,-0.612729 z"
           inkscape:connector-curvature="0" /></g><path
         id="path84"
         style="fill:#000000;fill-opacity:1;fill-rule:nonzero;stroke:none"
         d="m 15.91,33.566 c 0,-0.343 -0.574,-0.293 -0.805,-0.293 h -2.82 c -0.371,0 -1.035,0.219 -1.156,0.622 0.016,0.043 0.031,0.05 0.074,0.05 0.164,0 0.391,-0.133 0.492,-0.246 0.235,0 0.457,-0.015 0.688,-0.015 h 0.465 c 0,0 -0.032,0.136 -0.032,0.144 -0.289,1.367 -0.73,2.524 -1.058,3.258 -0.047,0.098 -0.449,1.031 -0.555,1.121 -0.328,0 -0.574,-0.18 -0.711,-0.473 -0.019,-0.043 -0.019,-0.074 -0.074,-0.074 -0.172,0 -0.582,0.238 -0.582,0.367 0,0.016 0.008,0.028 0.016,0.043 0.132,0.352 0.468,0.555 0.836,0.555 0.382,0 0.824,-0.277 1.062,-0.555 0.246,-0.281 0.738,-1.508 0.934,-1.957 h 1.441 c -0.008,0.008 -0.016,0.016 -0.016,0.024 0,0.027 0.047,0.051 0.075,0.051 0.164,0 0.589,-0.208 0.589,-0.442 0,-0.051 -0.05,-0.043 -0.14,-0.043 H 12.84 c 0.195,-0.672 0.449,-1.332 0.582,-2.019 h 0.988 c 0.188,0 0.707,-0.036 0.844,0.128 0.016,0.043 -0.008,0.122 0.016,0.157 0.015,0.015 0.035,0.023 0.058,0.023 0.18,0 0.582,-0.226 0.582,-0.426 z"
         inkscape:connector-curvature="0" /><path
         id="path86"
         style="fill:#000000;fill-opacity:1;fill-rule:nonzero;stroke:none"
         d="m 18.293,40.18 c 0,-0.024 0,-0.039 -0.125,-0.164 -0.934,-0.942 -1.172,-2.356 -1.172,-3.5 0,-1.297 0.281,-2.598 1.203,-3.532 0.094,-0.089 0.094,-0.105 0.094,-0.129 0,-0.05 -0.027,-0.074 -0.074,-0.074 -0.074,0 -0.746,0.508 -1.188,1.457 -0.379,0.821 -0.469,1.653 -0.469,2.278 0,0.586 0.083,1.488 0.493,2.332 0.449,0.918 1.09,1.406 1.164,1.406 0.047,0 0.074,-0.024 0.074,-0.074 z"
         inkscape:connector-curvature="0" /><path
         id="path88"
         style="fill:#000000;fill-opacity:1;fill-rule:nonzero;stroke:none"
         d="m 22.73,35.391 c -0.265,0.074 -0.402,0.328 -0.402,0.515 0,0.164 0.129,0.344 0.375,0.344 0.262,0 0.535,-0.219 0.535,-0.586 0,-0.394 -0.394,-0.656 -0.851,-0.656 -0.426,0 -0.699,0.32 -0.797,0.457 -0.188,-0.317 -0.606,-0.457 -1.031,-0.457 -0.942,0 -1.45,0.918 -1.45,1.164 0,0.105 0.11,0.105 0.18,0.105 0.09,0 0.141,0 0.172,-0.097 0.215,-0.68 0.754,-0.903 1.059,-0.903 0.285,0 0.418,0.133 0.418,0.371 0,0.145 -0.102,0.555 -0.172,0.825 l -0.254,1.023 c -0.11,0.457 -0.379,0.68 -0.633,0.68 -0.039,0 -0.211,0 -0.359,-0.114 0.269,-0.074 0.402,-0.328 0.402,-0.515 0,-0.164 -0.125,-0.344 -0.371,-0.344 -0.262,0 -0.539,0.219 -0.539,0.586 0,0.395 0.394,0.656 0.851,0.656 0.426,0 0.703,-0.32 0.801,-0.457 0.184,0.317 0.606,0.457 1.031,0.457 0.942,0 1.45,-0.918 1.45,-1.168 0,-0.101 -0.114,-0.101 -0.18,-0.101 -0.09,0 -0.145,0 -0.172,0.097 -0.219,0.68 -0.754,0.903 -1.063,0.903 -0.285,0 -0.418,-0.133 -0.418,-0.375 0,-0.156 0.098,-0.551 0.165,-0.828 0.05,-0.196 0.222,-0.895 0.261,-1.016 0.114,-0.449 0.375,-0.68 0.637,-0.68 0.035,0 0.207,0 0.355,0.114 z"
         inkscape:connector-curvature="0" /><path
         id="path90"
         style="fill:#000000;fill-opacity:1;fill-rule:nonzero;stroke:none"
         d="m 25.812,36.516 c 0,-0.582 -0.082,-1.485 -0.496,-2.328 -0.445,-0.922 -1.089,-1.407 -1.164,-1.407 -0.043,0 -0.074,0.031 -0.074,0.074 0,0.024 0,0.04 0.141,0.172 0.734,0.739 1.16,1.93 1.16,3.489 0,1.277 -0.277,2.593 -1.203,3.535 -0.098,0.09 -0.098,0.105 -0.098,0.129 0,0.043 0.031,0.074 0.074,0.074 0.075,0 0.746,-0.508 1.188,-1.457 0.383,-0.824 0.472,-1.652 0.472,-2.281 z"
         inkscape:connector-curvature="0" /><path
         id="path92"
         style="fill:#000000;fill-opacity:1;fill-rule:nonzero;stroke:none"
         d="m 24.246,64.059 c 0,-0.344 -0.574,-0.289 -0.808,-0.289 h -2.817 c -0.371,0 -1.039,0.214 -1.156,0.617 0.015,0.047 0.027,0.054 0.074,0.054 0.164,0 0.387,-0.136 0.492,-0.246 0.231,0 0.457,-0.015 0.688,-0.015 h 0.465 c 0,0 -0.032,0.132 -0.032,0.14 -0.293,1.368 -0.73,2.528 -1.062,3.258 -0.043,0.098 -0.445,1.031 -0.551,1.121 -0.328,0 -0.574,-0.179 -0.711,-0.469 -0.023,-0.046 -0.023,-0.074 -0.074,-0.074 -0.172,0 -0.582,0.239 -0.582,0.364 0,0.015 0.008,0.031 0.016,0.046 0.132,0.352 0.468,0.551 0.835,0.551 0.379,0 0.821,-0.277 1.063,-0.551 0.246,-0.285 0.738,-1.511 0.934,-1.957 h 1.441 c -0.008,0.004 -0.016,0.012 -0.016,0.02 0,0.031 0.043,0.055 0.075,0.055 0.164,0 0.589,-0.211 0.589,-0.442 0,-0.054 -0.05,-0.047 -0.14,-0.047 h -1.793 c 0.195,-0.672 0.449,-1.328 0.582,-2.015 h 0.988 c 0.184,0 0.707,-0.039 0.844,0.125 0.012,0.047 -0.008,0.121 0.012,0.16 0.015,0.012 0.039,0.019 0.062,0.019 0.18,0 0.582,-0.222 0.582,-0.425 z"
         inkscape:connector-curvature="0" /><path
         id="path94"
         style="fill:#000000;fill-opacity:1;fill-rule:nonzero;stroke:none"
         d="m 26.629,70.672 c 0,-0.024 0,-0.035 -0.125,-0.164 -0.934,-0.942 -1.176,-2.352 -1.176,-3.496 0,-1.301 0.285,-2.602 1.203,-3.535 0.098,-0.09 0.098,-0.106 0.098,-0.125 0,-0.055 -0.027,-0.079 -0.074,-0.079 -0.075,0 -0.746,0.512 -1.188,1.457 -0.383,0.825 -0.469,1.653 -0.469,2.282 0,0.582 0.082,1.484 0.493,2.332 0.449,0.918 1.089,1.402 1.164,1.402 0.047,0 0.074,-0.019 0.074,-0.074 z"
         inkscape:connector-curvature="0" /><path
         id="path96"
         style="fill:#000000;fill-opacity:1;fill-rule:nonzero;stroke:none"
         d="m 31.066,65.883 c -0.269,0.074 -0.402,0.328 -0.402,0.515 0,0.164 0.125,0.344 0.375,0.344 0.262,0 0.535,-0.215 0.535,-0.582 0,-0.398 -0.394,-0.66 -0.851,-0.66 -0.426,0 -0.703,0.324 -0.797,0.457 C 29.738,65.645 29.32,65.5 28.895,65.5 c -0.942,0 -1.454,0.922 -1.454,1.168 0,0.105 0.114,0.105 0.18,0.105 0.09,0 0.145,0 0.172,-0.097 0.219,-0.68 0.758,-0.906 1.062,-0.906 0.286,0 0.418,0.136 0.418,0.375 0,0.14 -0.105,0.554 -0.171,0.82 l -0.254,1.023 c -0.114,0.457 -0.379,0.68 -0.633,0.68 -0.039,0 -0.211,0 -0.36,-0.109 0.27,-0.075 0.403,-0.329 0.403,-0.516 0,-0.164 -0.129,-0.344 -0.375,-0.344 -0.262,0 -0.535,0.215 -0.535,0.582 0,0.395 0.394,0.657 0.851,0.657 0.426,0 0.699,-0.321 0.797,-0.454 0.188,0.313 0.606,0.454 1.031,0.454 0.942,0 1.45,-0.918 1.45,-1.165 0,-0.105 -0.11,-0.105 -0.176,-0.105 -0.09,0 -0.145,0 -0.172,0.098 -0.219,0.679 -0.758,0.902 -1.063,0.902 -0.285,0 -0.418,-0.133 -0.418,-0.371 0,-0.156 0.098,-0.555 0.164,-0.828 0.051,-0.196 0.223,-0.899 0.262,-1.02 0.114,-0.445 0.371,-0.679 0.633,-0.679 0.039,0 0.211,0 0.359,0.113 z"
         inkscape:connector-curvature="0" /><path
         id="path98"
         style="fill:#000000;fill-opacity:1;fill-rule:nonzero;stroke:none"
         d="m 34.145,67.012 c 0,-0.582 -0.083,-1.489 -0.493,-2.332 -0.449,-0.918 -1.09,-1.407 -1.164,-1.407 -0.047,0 -0.074,0.032 -0.074,0.079 0,0.019 0,0.035 0.141,0.171 0.73,0.739 1.156,1.926 1.156,3.489 0,1.277 -0.273,2.593 -1.199,3.535 -0.098,0.09 -0.098,0.101 -0.098,0.125 0,0.047 0.027,0.074 0.074,0.074 0.074,0 0.746,-0.508 1.188,-1.457 0.379,-0.82 0.469,-1.648 0.469,-2.277 z"
         inkscape:connector-curvature="0" /><path
         id="path100"
         style="fill:#000000;fill-opacity:1;fill-rule:nonzero;stroke:none"
         d="m 39.609,67.16 h 2.086 c 0.102,0 0.246,0 0.246,-0.148 0,-0.149 -0.144,-0.149 -0.246,-0.149 H 39.609 V 64.77 c 0,-0.106 0,-0.247 -0.148,-0.247 -0.152,0 -0.152,0.141 -0.152,0.247 v 2.093 h -2.09 c -0.106,0 -0.246,0 -0.246,0.149 0,0.148 0.14,0.148 0.246,0.148 h 2.09 v 2.094 c 0,0.101 0,0.246 0.152,0.246 0.148,0 0.148,-0.145 0.148,-0.246 z"
         inkscape:connector-curvature="0" /><path
         id="path102"
         style="fill:#000000;fill-opacity:1;fill-rule:nonzero;stroke:none"
         d="m 48.031,65.883 c -0.269,0.074 -0.406,0.328 -0.406,0.515 0,0.164 0.129,0.344 0.375,0.344 0.262,0 0.539,-0.215 0.539,-0.582 0,-0.398 -0.398,-0.66 -0.851,-0.66 -0.426,0 -0.704,0.324 -0.801,0.457 -0.188,-0.312 -0.606,-0.457 -1.032,-0.457 -0.941,0 -1.449,0.922 -1.449,1.168 0,0.105 0.114,0.105 0.18,0.105 0.09,0 0.141,0 0.172,-0.097 0.215,-0.68 0.754,-0.906 1.058,-0.906 0.286,0 0.422,0.136 0.422,0.375 0,0.14 -0.105,0.554 -0.172,0.82 l -0.254,1.023 c -0.113,0.457 -0.382,0.68 -0.636,0.68 -0.039,0 -0.211,0 -0.36,-0.109 0.27,-0.075 0.403,-0.329 0.403,-0.516 0,-0.164 -0.125,-0.344 -0.371,-0.344 -0.262,0 -0.539,0.215 -0.539,0.582 0,0.395 0.394,0.657 0.851,0.657 0.426,0 0.703,-0.321 0.801,-0.454 0.187,0.313 0.605,0.454 1.031,0.454 0.942,0 1.449,-0.918 1.449,-1.165 0,-0.105 -0.113,-0.105 -0.179,-0.105 -0.09,0 -0.141,0 -0.172,0.098 -0.215,0.679 -0.754,0.902 -1.063,0.902 -0.281,0 -0.418,-0.133 -0.418,-0.371 0,-0.156 0.098,-0.555 0.164,-0.828 0.055,-0.196 0.227,-0.899 0.262,-1.02 0.113,-0.445 0.375,-0.679 0.637,-0.679 0.035,0 0.207,0 0.359,0.113 z"
         inkscape:connector-curvature="0" /><path
         id="path104"
         style="fill:#000000;fill-opacity:1;fill-rule:nonzero;stroke:none"
         d="m 52.367,7.355 c -0.269,0.075 -0.402,0.329 -0.402,0.516 0,0.164 0.125,0.344 0.371,0.344 0.262,0 0.539,-0.215 0.539,-0.582 0,-0.395 -0.395,-0.656 -0.852,-0.656 -0.425,0 -0.703,0.32 -0.8,0.453 -0.188,-0.313 -0.606,-0.453 -1.032,-0.453 -0.941,0 -1.449,0.918 -1.449,1.164 0,0.105 0.113,0.105 0.18,0.105 0.09,0 0.14,0 0.172,-0.098 0.218,-0.679 0.754,-0.902 1.062,-0.902 0.282,0 0.418,0.133 0.418,0.371 0,0.145 -0.105,0.555 -0.172,0.824 l -0.254,1.024 c -0.113,0.453 -0.382,0.68 -0.636,0.68 -0.035,0 -0.207,0 -0.36,-0.114 0.27,-0.074 0.407,-0.328 0.407,-0.515 0,-0.164 -0.129,-0.344 -0.375,-0.344 -0.262,0 -0.539,0.219 -0.539,0.582 0,0.398 0.398,0.66 0.851,0.66 0.426,0 0.703,-0.324 0.801,-0.457 0.187,0.313 0.605,0.457 1.031,0.457 0.942,0 1.449,-0.922 1.449,-1.168 0,-0.105 -0.113,-0.105 -0.179,-0.105 -0.09,0 -0.141,0 -0.172,0.097 -0.215,0.68 -0.754,0.907 -1.059,0.907 -0.285,0 -0.422,-0.137 -0.422,-0.375 0,-0.157 0.098,-0.551 0.168,-0.829 0.051,-0.195 0.223,-0.898 0.258,-1.015 0.113,-0.449 0.375,-0.68 0.637,-0.68 0.039,0 0.211,0 0.359,0.109 z"
         inkscape:connector-curvature="0" /><path
         id="path106"
         style="fill:#000000;fill-opacity:1;fill-rule:nonzero;stroke:none"
         d="m 120.016,40.504 c -0.27,0.074 -0.407,0.328 -0.407,0.516 0,0.164 0.129,0.343 0.375,0.343 0.262,0 0.539,-0.218 0.539,-0.586 0,-0.394 -0.398,-0.656 -0.851,-0.656 -0.426,0 -0.703,0.32 -0.801,0.457 -0.187,-0.316 -0.605,-0.457 -1.031,-0.457 -0.942,0 -1.449,0.918 -1.449,1.164 0,0.106 0.113,0.106 0.179,0.106 0.09,0 0.141,0 0.172,-0.098 0.215,-0.68 0.754,-0.902 1.059,-0.902 0.285,0 0.422,0.132 0.422,0.375 0,0.14 -0.106,0.55 -0.172,0.82 l -0.254,1.023 c -0.113,0.457 -0.383,0.68 -0.637,0.68 -0.039,0 -0.211,0 -0.359,-0.113 0.269,-0.074 0.402,-0.328 0.402,-0.516 0,-0.164 -0.125,-0.344 -0.371,-0.344 -0.262,0 -0.539,0.219 -0.539,0.586 0,0.395 0.395,0.657 0.852,0.657 0.425,0 0.703,-0.321 0.8,-0.457 0.188,0.316 0.606,0.457 1.032,0.457 0.941,0 1.449,-0.918 1.449,-1.164 0,-0.106 -0.114,-0.106 -0.18,-0.106 -0.09,0 -0.141,0 -0.172,0.098 -0.219,0.679 -0.754,0.902 -1.062,0.902 -0.282,0 -0.418,-0.133 -0.418,-0.375 0,-0.156 0.097,-0.551 0.164,-0.828 0.054,-0.195 0.226,-0.895 0.262,-1.016 0.113,-0.449 0.375,-0.679 0.636,-0.679 0.035,0 0.207,0 0.36,0.113 z"
         inkscape:connector-curvature="0" /></g></g></svg>